<?xml version="1.0" encoding="UTF-8"?>
<svg xmlns="http://www.w3.org/2000/svg" xmlns:xlink="http://www.w3.org/1999/xlink" width="825.163" height="331.746" viewBox="0 0 825.163 331.746">
<defs>
<g>
<g id="glyph-0-0">
<path d="M 7.765625 -5.296875 L 6.890625 -5.296875 L 6.171875 -2.875 C 6 -2.296875 5.671875 -1.1875 5.625 -0.671875 L 5.609375 -0.671875 C 5.578125 -0.953125 5.390625 -1.75 5.140625 -2.609375 L 4.34375 -5.296875 L 3.515625 -5.296875 L 2.84375 -2.953125 C 2.625 -2.21875 2.34375 -1.1875 2.296875 -0.6875 C 2.28125 -0.921875 2.15625 -1.546875 1.921875 -2.359375 L 1.078125 -5.296875 L 0.171875 -5.296875 L 1.765625 0 L 2.6875 0 C 3.140625 -1.5 3.828125 -3.765625 3.90625 -4.609375 L 3.921875 -4.609375 C 3.9375 -4.125 4.171875 -3.265625 4.265625 -2.984375 L 5.109375 0 L 6.15625 0 Z M 7.765625 -5.296875 "/>
</g>
<g id="glyph-0-1">
<path d="M 3.796875 -4.625 L 3.796875 -5.421875 C 2.703125 -5.40625 2.078125 -4.78125 1.75 -4.3125 L 1.75 -5.359375 L 0.9375 -5.359375 L 0.9375 0 L 1.8125 0 L 1.8125 -2.609375 C 1.8125 -3.8125 2.71875 -4.609375 3.796875 -4.625 Z M 3.796875 -4.625 "/>
</g>
<g id="glyph-0-2">
<path d="M 1.8125 0 L 1.8125 -5.296875 L 0.9375 -5.296875 L 0.9375 0 Z M 1.890625 -6.78125 L 1.890625 -7.8125 L 0.859375 -7.8125 L 0.859375 -6.78125 Z M 1.890625 -6.78125 "/>
</g>
<g id="glyph-0-3">
<path d="M 3.890625 -0.34375 L 3.71875 -1.03125 C 3.296875 -0.671875 2.859375 -0.625 2.640625 -0.625 C 2.109375 -0.625 2.046875 -1.1875 2.046875 -1.59375 L 2.046875 -4.609375 L 3.6875 -4.609375 L 3.6875 -5.296875 L 2.046875 -5.296875 L 2.046875 -6.8125 L 1.21875 -6.8125 L 1.21875 -5.296875 L 0.21875 -5.296875 L 0.21875 -4.609375 L 1.1875 -4.609375 L 1.1875 -1.390625 C 1.1875 -0.703125 1.34375 0.125 2.171875 0.125 C 2.96875 0.125 3.515625 -0.15625 3.890625 -0.34375 Z M 3.890625 -0.34375 "/>
</g>
<g id="glyph-0-4">
<path d="M 4.859375 -2.6875 C 4.859375 -3.203125 4.8125 -3.921875 4.421875 -4.5625 C 3.9375 -5.390625 3.109375 -5.484375 2.75 -5.484375 C 1.46875 -5.484375 0.390625 -4.234375 0.390625 -2.6875 C 0.390625 -1.109375 1.546875 0.125 2.921875 0.125 C 3.46875 0.125 4.125 -0.03125 4.78125 -0.515625 C 4.78125 -0.5625 4.75 -0.953125 4.75 -0.953125 C 4.75 -0.953125 4.71875 -1.234375 4.71875 -1.28125 C 4.015625 -0.6875 3.3125 -0.59375 2.953125 -0.59375 C 2.03125 -0.59375 1.234375 -1.421875 1.21875 -2.6875 Z M 4.15625 -3.328125 L 1.296875 -3.328125 C 1.5 -4.125 2.046875 -4.765625 2.75 -4.765625 C 3.125 -4.765625 3.953125 -4.59375 4.15625 -3.328125 Z M 4.15625 -3.328125 "/>
</g>
<g id="glyph-0-5">
<path d="M 5.0625 0 L 5.0625 -3.59375 C 5.0625 -4.328125 4.90625 -5.421875 3.46875 -5.421875 C 2.796875 -5.421875 2.21875 -5.125 1.765625 -4.546875 L 1.765625 -5.359375 L 0.921875 -5.359375 L 0.921875 0 L 1.828125 0 L 1.828125 -2.96875 C 1.828125 -3.71875 2.09375 -4.703125 3.015625 -4.703125 C 4.125 -4.703125 4.15625 -3.921875 4.15625 -3.515625 L 4.15625 0 Z M 5.0625 0 "/>
</g>
<g id="glyph-0-6">
<path d="M 5.671875 -4.6875 L 5.53125 -5.421875 C 5.3125 -5.421875 4.5 -5.40625 3.71875 -5.03125 C 3.3125 -5.359375 2.84375 -5.421875 2.609375 -5.421875 C 1.5625 -5.421875 0.734375 -4.546875 0.734375 -3.5 C 0.734375 -3.0625 0.859375 -2.671875 1.125 -2.3125 C 0.84375 -1.9375 0.78125 -1.578125 0.78125 -1.296875 C 0.78125 -0.84375 0.9375 -0.546875 1.078125 -0.390625 C 0.46875 0 0.328125 0.515625 0.328125 0.84375 C 0.328125 1.71875 1.453125 2.453125 2.90625 2.453125 C 4.375 2.453125 5.515625 1.75 5.515625 0.828125 C 5.515625 -0.828125 3.578125 -0.828125 3.09375 -0.828125 L 2.078125 -0.828125 C 1.90625 -0.828125 1.390625 -0.828125 1.390625 -1.46875 C 1.390625 -1.734375 1.4375 -1.796875 1.515625 -1.90625 C 1.71875 -1.765625 2.109375 -1.5625 2.59375 -1.5625 C 3.609375 -1.5625 4.46875 -2.40625 4.46875 -3.5 C 4.46875 -3.921875 4.3125 -4.375 4.078125 -4.703125 C 4.078125 -4.703125 4.09375 -4.671875 4.109375 -4.65625 C 4.359375 -4.671875 4.625 -4.71875 5.0625 -4.71875 C 5.09375 -4.71875 5.375 -4.71875 5.671875 -4.6875 Z M 3.640625 -3.5 C 3.640625 -2.4375 2.96875 -2.21875 2.609375 -2.21875 C 2.078125 -2.21875 1.546875 -2.578125 1.546875 -3.484375 C 1.546875 -4.546875 2.21875 -4.765625 2.59375 -4.765625 C 3.109375 -4.765625 3.640625 -4.40625 3.640625 -3.5 Z M 4.671875 0.84375 C 4.671875 1.390625 3.859375 1.796875 2.921875 1.796875 C 2 1.796875 1.15625 1.421875 1.15625 0.828125 C 1.15625 0.796875 1.15625 0.03125 2.0625 0.03125 L 3.109375 0.03125 C 3.359375 0.03125 4.671875 0.03125 4.671875 0.84375 Z M 4.671875 0.84375 "/>
</g>
<g id="glyph-0-7">
<path d="M 4.859375 -0.5 C 4.859375 -0.53125 4.828125 -0.90625 4.8125 -0.953125 L 4.78125 -1.296875 C 4.234375 -0.84375 3.625 -0.625 2.953125 -0.625 C 1.96875 -0.625 1.328125 -1.5 1.328125 -2.65625 C 1.328125 -3.65625 1.796875 -4.734375 3 -4.734375 C 3.796875 -4.734375 4.125 -4.546875 4.640625 -4.203125 L 4.78125 -4.984375 C 4.09375 -5.390625 3.703125 -5.484375 3 -5.484375 C 1.34375 -5.484375 0.421875 -4.015625 0.421875 -2.65625 C 0.421875 -1.140625 1.515625 0.125 2.953125 0.125 C 3.53125 0.125 4.203125 -0.03125 4.859375 -0.5 Z M 4.859375 -0.5 "/>
</g>
<g id="glyph-0-8">
<path d="M 4.78125 0 L 4.78125 -3.5 C 4.78125 -4.640625 3.96875 -5.484375 2.859375 -5.484375 C 2.140625 -5.484375 1.59375 -5.3125 1.015625 -4.984375 L 1.09375 -4.1875 C 1.609375 -4.578125 2.15625 -4.78125 2.859375 -4.78125 C 3.40625 -4.78125 3.875 -4.34375 3.875 -3.46875 L 3.875 -2.984375 C 3.34375 -2.953125 2.625 -2.921875 1.90625 -2.6875 C 1.109375 -2.40625 0.640625 -1.96875 0.640625 -1.375 C 0.640625 -0.84375 0.953125 0.125 1.96875 0.125 C 2.625 0.125 3.46875 -0.078125 3.90625 -0.4375 L 3.90625 0 Z M 3.875 -1.59375 C 3.875 -1.359375 3.875 -1.078125 3.484375 -0.828125 C 3.15625 -0.625 2.75 -0.59375 2.578125 -0.59375 C 1.9375 -0.59375 1.5 -0.9375 1.5 -1.390625 C 1.5 -2.203125 3.15625 -2.375 3.875 -2.375 Z M 3.875 -1.59375 "/>
</g>
<g id="glyph-0-9">
<path d="M 5.046875 0 L 5.046875 -8.28125 L 4.171875 -8.28125 L 4.171875 -4.796875 C 3.609375 -5.25 3 -5.421875 2.484375 -5.421875 C 1.34375 -5.421875 0.421875 -4.203125 0.421875 -2.65625 C 0.421875 -1.109375 1.296875 0.125 2.4375 0.125 C 2.875 0.125 3.546875 -0.03125 4.140625 -0.609375 L 4.140625 0 Z M 4.140625 -1.40625 C 3.859375 -0.890625 3.4375 -0.59375 2.90625 -0.59375 C 2.1875 -0.59375 1.328125 -1.15625 1.328125 -2.640625 C 1.328125 -4.21875 2.34375 -4.703125 3.03125 -4.703125 C 3.5 -4.703125 3.875 -4.46875 4.140625 -4.078125 Z M 4.140625 -1.40625 "/>
</g>
<g id="glyph-0-10">
<path d="M 5.484375 -2.625 C 5.484375 -4.234375 4.296875 -5.484375 2.921875 -5.484375 C 1.515625 -5.484375 0.359375 -4.21875 0.359375 -2.625 C 0.359375 -1.0625 1.546875 0.125 2.90625 0.125 C 4.328125 0.125 5.484375 -1.09375 5.484375 -2.625 Z M 4.578125 -2.75 C 4.578125 -1.28125 3.71875 -0.625 2.921875 -0.625 C 2.0625 -0.625 1.265625 -1.34375 1.265625 -2.75 C 1.265625 -4.1875 2.15625 -4.765625 2.90625 -4.765625 C 3.734375 -4.765625 4.578125 -4.140625 4.578125 -2.75 Z M 4.578125 -2.75 "/>
</g>
<g id="glyph-0-11">
<path d="M 1.8125 0 L 1.8125 -8.28125 L 0.9375 -8.28125 L 0.9375 0 Z M 1.8125 0 "/>
</g>
<g id="glyph-0-12">
<path d="M 8.328125 0 L 8.328125 -3.59375 C 8.328125 -4.421875 8.109375 -5.421875 6.703125 -5.421875 C 5.6875 -5.421875 5.140625 -4.71875 4.953125 -4.453125 C 4.734375 -5.203125 4.078125 -5.421875 3.46875 -5.421875 C 2.484375 -5.421875 1.96875 -4.78125 1.765625 -4.53125 L 1.765625 -5.359375 L 0.921875 -5.359375 L 0.921875 0 L 1.828125 0 L 1.828125 -2.96875 C 1.828125 -3.765625 2.140625 -4.703125 3.015625 -4.703125 C 4.109375 -4.703125 4.171875 -3.953125 4.171875 -3.515625 L 4.171875 0 L 5.078125 0 L 5.078125 -2.96875 C 5.078125 -3.765625 5.390625 -4.703125 6.25 -4.703125 C 7.359375 -4.703125 7.40625 -3.953125 7.40625 -3.515625 L 7.40625 0 Z M 8.328125 0 "/>
</g>
<g id="glyph-0-13">
<path d="M 5.5625 -2.65625 C 5.5625 -4.125 4.78125 -5.421875 3.671875 -5.421875 C 3.3125 -5.421875 2.546875 -5.34375 1.8125 -4.75 L 1.8125 -8.28125 L 0.9375 -8.28125 L 0.9375 0 L 1.84375 0 L 1.84375 -0.53125 C 2.390625 -0.015625 2.96875 0.125 3.390625 0.125 C 4.53125 0.125 5.5625 -1.03125 5.5625 -2.65625 Z M 4.65625 -2.65625 C 4.65625 -1.109375 3.671875 -0.59375 2.953125 -0.59375 C 2.609375 -0.59375 2.390625 -0.71875 2.171875 -0.890625 C 1.890625 -1.140625 1.84375 -1.34375 1.84375 -1.546875 L 1.84375 -4.015625 C 2.046875 -4.359375 2.484375 -4.703125 3.0625 -4.703125 C 3.796875 -4.703125 4.65625 -4.15625 4.65625 -2.65625 Z M 4.65625 -2.65625 "/>
</g>
<g id="glyph-0-14">
<path d="M 5.171875 -5.296875 L 4.28125 -5.296875 C 3.71875 -3.890625 2.8125 -1.546875 2.75 -0.6875 C 2.6875 -1.390625 2.046875 -2.96875 1.953125 -3.21875 L 1.109375 -5.296875 L 0.171875 -5.296875 L 2.390625 0 L 1.96875 1.09375 C 1.703125 1.6875 1.53125 1.75 1.3125 1.75 C 1.140625 1.75 0.765625 1.703125 0.390625 1.5625 L 0.46875 2.34375 C 0.53125 2.359375 0.9375 2.4375 1.3125 2.4375 C 1.59375 2.4375 2.15625 2.4375 2.671875 1.125 Z M 5.171875 -5.296875 "/>
</g>
<g id="glyph-0-15">
<path d="M 4.203125 -1.515625 C 4.203125 -2.125 3.828125 -2.5 3.78125 -2.5625 C 3.34375 -3.015625 2.984375 -3.09375 2.25 -3.234375 C 1.828125 -3.3125 1.21875 -3.4375 1.21875 -4.03125 C 1.21875 -4.78125 2.046875 -4.78125 2.203125 -4.78125 C 2.84375 -4.78125 3.34375 -4.625 3.875 -4.328125 L 4.015625 -5.109375 C 3.25 -5.46875 2.609375 -5.484375 2.328125 -5.484375 C 2.046875 -5.484375 0.390625 -5.484375 0.390625 -3.921875 C 0.390625 -3.40625 0.6875 -3.046875 0.859375 -2.875 C 1.296875 -2.5 1.59375 -2.453125 2.296875 -2.296875 C 2.6875 -2.21875 3.375 -2.078125 3.375 -1.4375 C 3.375 -0.625 2.453125 -0.625 2.28125 -0.625 C 1.796875 -0.625 1.109375 -0.75 0.46875 -1.21875 L 0.328125 -0.40625 C 0.375 -0.375 1.1875 0.125 2.296875 0.125 C 3.828125 0.125 4.203125 -0.8125 4.203125 -1.515625 Z M 4.203125 -1.515625 "/>
</g>
<g id="glyph-0-16">
<path d="M 5.5625 -2.65625 C 5.5625 -4.109375 4.796875 -5.421875 3.6875 -5.421875 C 3.203125 -5.421875 2.4375 -5.265625 1.8125 -4.734375 L 1.8125 -5.296875 L 0.9375 -5.296875 L 0.9375 2.3125 L 1.84375 2.3125 L 1.84375 -0.53125 C 2.25 -0.171875 2.75 0.125 3.390625 0.125 C 4.53125 0.125 5.5625 -1.03125 5.5625 -2.65625 Z M 4.65625 -2.65625 C 4.65625 -1.453125 3.828125 -0.59375 2.953125 -0.59375 C 2.609375 -0.59375 2.390625 -0.71875 2.171875 -0.890625 C 1.875 -1.140625 1.84375 -1.359375 1.84375 -1.546875 L 1.84375 -4.015625 C 2.109375 -4.421875 2.5625 -4.671875 3.0625 -4.671875 C 3.9375 -4.671875 4.65625 -3.78125 4.65625 -2.65625 Z M 4.65625 -2.65625 "/>
</g>
<g id="glyph-0-17">
<path d="M 7.1875 0 L 4.859375 -3.890625 C 6.15625 -4.265625 6.859375 -5.171875 6.859375 -6.046875 C 6.859375 -7.25 5.59375 -8.28125 3.90625 -8.28125 L 1.09375 -8.28125 L 1.09375 0 L 2.09375 0 L 2.09375 -3.78125 L 3.953125 -3.78125 L 6.15625 0 Z M 5.921875 -6.046875 C 5.921875 -5.3125 5.28125 -4.5 3.765625 -4.5 L 2.09375 -4.5 L 2.09375 -7.609375 L 3.765625 -7.609375 C 5.21875 -7.609375 5.921875 -6.859375 5.921875 -6.046875 Z M 5.921875 -6.046875 "/>
</g>
<g id="glyph-0-18">
<path d="M 5.0625 0 L 5.0625 -5.296875 L 4.15625 -5.296875 L 4.15625 -1.890625 C 4.15625 -0.984375 3.515625 -0.53125 2.75 -0.53125 C 1.90625 -0.53125 1.828125 -0.84375 1.828125 -1.375 L 1.828125 -5.296875 L 0.921875 -5.296875 L 0.921875 -1.328125 C 0.921875 -0.46875 1.1875 0.125 2.171875 0.125 C 2.5 0.125 3.453125 0.0625 4.171875 -0.59375 L 4.171875 0 Z M 5.0625 0 "/>
</g>
<g id="glyph-0-19">
<path d="M 5.84375 -2.25 C 5.84375 -3.015625 5.46875 -3.59375 5.203125 -3.890625 C 4.65625 -4.484375 4.21875 -4.59375 3.421875 -4.796875 C 2.609375 -5 2.296875 -5.078125 2.046875 -5.328125 C 1.890625 -5.484375 1.5625 -5.796875 1.5625 -6.328125 C 1.5625 -7.0625 2.21875 -7.765625 3.265625 -7.765625 C 4.28125 -7.765625 4.828125 -7.359375 5.25 -6.984375 L 5.4375 -7.953125 C 4.9375 -8.21875 4.34375 -8.53125 3.28125 -8.53125 C 1.6875 -8.53125 0.640625 -7.390625 0.640625 -6.203125 C 0.640625 -5.34375 1.15625 -4.796875 1.21875 -4.734375 C 1.796875 -4.140625 2.203125 -4.03125 2.96875 -3.84375 C 3.984375 -3.59375 4.15625 -3.546875 4.53125 -3.15625 C 4.734375 -2.9375 4.921875 -2.546875 4.921875 -2.140625 C 4.921875 -1.3125 4.234375 -0.546875 3.21875 -0.546875 C 2.34375 -0.546875 1.40625 -0.890625 0.703125 -1.546875 L 0.53125 -0.578125 C 1.609375 0.140625 2.65625 0.25 3.21875 0.25 C 4.75 0.25 5.84375 -0.9375 5.84375 -2.25 Z M 5.84375 -2.25 "/>
</g>
<g id="glyph-0-20">
<path d="M 7.09375 0 L 7.09375 -8.28125 L 6.171875 -8.28125 L 6.171875 -0.890625 L 6.15625 -0.890625 L 5.1875 -2.890625 L 2.546875 -8.28125 L 1.09375 -8.28125 L 1.09375 0 L 2 0 L 2 -7.40625 L 2.015625 -7.40625 L 2.984375 -5.390625 L 5.625 0 Z M 7.09375 0 "/>
</g>
<g id="glyph-0-21">
<path d="M 7.546875 0 L 4.28125 -5 L 7.390625 -8.28125 L 6.265625 -8.28125 L 2.09375 -3.875 L 2.09375 -8.28125 L 1.09375 -8.28125 L 1.09375 0 L 2.09375 0 L 2.09375 -2.703125 L 3.625 -4.328125 L 6.453125 0 Z M 7.546875 0 "/>
</g>
<g id="glyph-0-22">
<path d="M 4.6875 0 L 4.6875 -0.734375 L 2.984375 -0.734375 C 2.84375 -0.734375 2.703125 -0.71875 2.546875 -0.71875 L 1.546875 -0.71875 L 4.65625 -4.828125 L 4.65625 -5.296875 L 0.484375 -5.296875 L 0.484375 -4.59375 L 2.09375 -4.59375 C 2.25 -4.59375 2.390625 -4.609375 2.53125 -4.609375 L 3.4375 -4.609375 L 0.328125 -0.484375 L 0.328125 0 Z M 4.6875 0 "/>
</g>
<g id="glyph-0-23">
<path d="M 7.109375 0 L 7.109375 -8.28125 L 6.078125 -8.28125 L 6.078125 -4.671875 L 2.09375 -4.671875 L 2.09375 -8.28125 L 1.078125 -8.28125 L 1.078125 0 L 2.09375 0 L 2.09375 -3.953125 L 6.078125 -3.953125 L 6.078125 0 Z M 7.109375 0 "/>
</g>
<g id="glyph-1-0">
<path d="M 4.828125 -3.90625 L 4.71875 -4.53125 C 4.015625 -4.53125 3.4375 -4.34375 3.140625 -4.203125 C 2.9375 -4.375 2.59375 -4.53125 2.203125 -4.53125 C 1.34375 -4.53125 0.609375 -3.8125 0.609375 -2.90625 C 0.609375 -2.53125 0.75 -2.1875 0.953125 -1.921875 C 0.65625 -1.515625 0.65625 -1.125 0.65625 -1.078125 C 0.65625 -0.8125 0.75 -0.53125 0.921875 -0.3125 C 0.390625 -0.015625 0.28125 0.453125 0.28125 0.703125 C 0.28125 1.453125 1.265625 2.046875 2.484375 2.046875 C 3.703125 2.046875 4.6875 1.46875 4.6875 0.703125 C 4.6875 -0.6875 3.03125 -0.6875 2.640625 -0.6875 L 1.765625 -0.6875 C 1.625 -0.6875 1.1875 -0.6875 1.1875 -1.21875 C 1.1875 -1.328125 1.21875 -1.484375 1.296875 -1.578125 C 1.5 -1.421875 1.828125 -1.28125 2.203125 -1.28125 C 3.09375 -1.28125 3.796875 -2.015625 3.796875 -2.90625 C 3.796875 -3.390625 3.578125 -3.75 3.46875 -3.90625 L 3.5 -3.890625 C 3.71875 -3.890625 4 -3.9375 4.234375 -3.9375 C 4.421875 -3.9375 4.828125 -3.90625 4.828125 -3.90625 Z M 3.09375 -2.90625 C 3.09375 -2.125 2.625 -1.84375 2.203125 -1.84375 C 1.828125 -1.84375 1.3125 -2.078125 1.3125 -2.90625 C 1.3125 -3.734375 1.828125 -3.96875 2.203125 -3.96875 C 2.625 -3.96875 3.09375 -3.6875 3.09375 -2.90625 Z M 3.984375 0.71875 C 3.984375 1.15625 3.296875 1.484375 2.484375 1.484375 C 1.6875 1.484375 0.96875 1.171875 0.96875 0.703125 C 0.96875 0.671875 0.96875 0.03125 1.75 0.03125 L 2.640625 0.03125 C 2.859375 0.03125 3.984375 0.03125 3.984375 0.71875 Z M 3.984375 0.71875 "/>
</g>
<g id="glyph-1-1">
<path d="M 4.125 -2.1875 C 4.125 -2.515625 4.109375 -3.265625 3.71875 -3.859375 C 3.3125 -4.484375 2.703125 -4.59375 2.34375 -4.59375 C 1.25 -4.59375 0.34375 -3.53125 0.34375 -2.25 C 0.34375 -0.9375 1.296875 0.109375 2.5 0.109375 C 3.125 0.109375 3.6875 -0.125 4.078125 -0.40625 L 4.015625 -1.0625 C 3.390625 -0.53125 2.734375 -0.5 2.515625 -0.5 C 1.71875 -0.5 1.078125 -1.203125 1.046875 -2.1875 Z M 3.546875 -2.734375 L 1.09375 -2.734375 C 1.25 -3.484375 1.78125 -3.984375 2.34375 -3.984375 C 2.859375 -3.984375 3.421875 -3.640625 3.546875 -2.734375 Z M 3.546875 -2.734375 "/>
</g>
<g id="glyph-1-2">
<path d="M 4.328125 0 L 4.328125 -2.96875 C 4.328125 -3.625 4.1875 -4.53125 2.96875 -4.53125 C 2.0625 -4.53125 1.578125 -3.859375 1.515625 -3.765625 L 1.515625 -4.484375 L 0.8125 -4.484375 L 0.8125 0 L 1.578125 0 L 1.578125 -2.4375 C 1.578125 -3.09375 1.828125 -3.921875 2.59375 -3.921875 C 3.546875 -3.921875 3.546875 -3.21875 3.546875 -2.890625 L 3.546875 0 Z M 4.328125 0 "/>
</g>
<g id="glyph-1-3">
<path d="M 3.25 -3.859375 L 3.25 -4.53125 C 2.375 -4.515625 1.828125 -4.03125 1.515625 -3.578125 L 1.515625 -4.484375 L 0.8125 -4.484375 L 0.8125 0 L 1.5625 0 L 1.5625 -2.125 C 1.5625 -3.125 2.28125 -3.84375 3.25 -3.859375 Z M 3.25 -3.859375 "/>
</g>
<g id="glyph-1-4">
<path d="M 4.078125 0 L 4.078125 -2.875 C 4.078125 -3.890625 3.34375 -4.59375 2.421875 -4.59375 C 1.78125 -4.59375 1.328125 -4.421875 0.859375 -4.15625 L 0.921875 -3.5 C 1.4375 -3.875 1.9375 -4 2.421875 -4 C 2.890625 -4 3.296875 -3.609375 3.296875 -2.859375 L 3.296875 -2.4375 C 1.796875 -2.421875 0.53125 -2 0.53125 -1.125 C 0.53125 -0.703125 0.8125 0.109375 1.671875 0.109375 C 1.8125 0.109375 2.75 0.09375 3.328125 -0.359375 L 3.328125 0 Z M 3.296875 -1.3125 C 3.296875 -1.125 3.296875 -0.875 2.953125 -0.6875 C 2.671875 -0.5 2.296875 -0.5 2.1875 -0.5 C 1.703125 -0.5 1.25 -0.734375 1.25 -1.140625 C 1.25 -1.84375 2.859375 -1.90625 3.296875 -1.9375 Z M 3.296875 -1.3125 "/>
</g>
<g id="glyph-1-5">
<path d="M 3.296875 -0.265625 L 3.140625 -0.859375 C 2.890625 -0.640625 2.5625 -0.53125 2.25 -0.53125 C 1.875 -0.53125 1.734375 -0.828125 1.734375 -1.359375 L 1.734375 -3.84375 L 3.140625 -3.84375 L 3.140625 -4.421875 L 1.734375 -4.421875 L 1.734375 -5.6875 L 1.0625 -5.6875 L 1.0625 -4.421875 L 0.1875 -4.421875 L 0.1875 -3.84375 L 1.03125 -3.84375 L 1.03125 -1.1875 C 1.03125 -0.59375 1.171875 0.109375 1.84375 0.109375 C 2.546875 0.109375 3.0625 -0.140625 3.296875 -0.265625 Z M 3.296875 -0.265625 "/>
</g>
<g id="glyph-1-6">
<path d="M 4.3125 0 L 4.3125 -6.90625 L 3.578125 -6.90625 L 3.578125 -3.984375 C 3.046875 -4.421875 2.484375 -4.53125 2.125 -4.53125 C 1.140625 -4.53125 0.359375 -3.5 0.359375 -2.203125 C 0.359375 -0.90625 1.125 0.109375 2.0625 0.109375 C 2.40625 0.109375 2.984375 0.015625 3.546875 -0.515625 L 3.546875 0 Z M 3.546875 -1.390625 C 3.546875 -1.25 3.53125 -1.0625 3.21875 -0.78125 C 2.984375 -0.578125 2.734375 -0.5 2.484375 -0.5 C 1.859375 -0.5 1.140625 -0.96875 1.140625 -2.203125 C 1.140625 -3.515625 1.984375 -3.921875 2.578125 -3.921875 C 3.03125 -3.921875 3.328125 -3.6875 3.546875 -3.375 Z M 3.546875 -1.390625 "/>
</g>
<g id="glyph-1-7">
<path d="M 4.78125 -2.21875 C 4.78125 -3.453125 4.09375 -4.53125 3.171875 -4.53125 C 2.78125 -4.53125 2.15625 -4.421875 1.5625 -3.9375 L 1.5625 -6.90625 L 0.8125 -6.90625 L 0.8125 0 L 1.59375 0 L 1.59375 -0.453125 C 1.828125 -0.234375 2.265625 0.109375 2.921875 0.109375 C 3.921875 0.109375 4.78125 -0.890625 4.78125 -2.21875 Z M 4 -2.21875 C 4 -0.921875 3.171875 -0.5 2.5625 -0.5 C 2.171875 -0.5 1.84375 -0.671875 1.59375 -1.140625 L 1.59375 -3.328125 C 1.75 -3.578125 2.109375 -3.921875 2.65625 -3.921875 C 3.25 -3.921875 4 -3.5 4 -2.21875 Z M 4 -2.21875 "/>
</g>
<g id="glyph-1-8">
<path d="M 4.4375 -4.421875 L 3.6875 -4.421875 C 2.40625 -1.25 2.375 -0.796875 2.375 -0.5625 L 2.359375 -0.5625 C 2.296875 -1.234375 1.5 -3.078125 1.46875 -3.171875 L 0.921875 -4.421875 L 0.140625 -4.421875 L 2.0625 0 L 1.71875 0.890625 C 1.453125 1.46875 1.28125 1.46875 1.140625 1.46875 C 0.984375 1.46875 0.671875 1.4375 0.375 1.3125 L 0.421875 1.953125 C 0.640625 2.015625 0.921875 2.046875 1.140625 2.046875 C 1.5 2.046875 1.859375 1.921875 2.265625 0.90625 Z M 4.4375 -4.421875 "/>
</g>
<g id="glyph-2-0">
<path d="M 5.171875 -0.3125 C 5.171875 -0.609375 4.921875 -0.609375 4.765625 -0.609375 C 4.34375 -0.609375 4.25 -0.65625 4.171875 -0.6875 L 4.171875 -2.84375 C 4.171875 -3.546875 3.640625 -4.375 2.203125 -4.375 C 1.765625 -4.375 0.75 -4.375 0.75 -3.65625 C 0.75 -3.359375 0.96875 -3.1875 1.203125 -3.1875 C 1.359375 -3.1875 1.625 -3.28125 1.640625 -3.65625 C 1.640625 -3.734375 1.65625 -3.75 1.84375 -3.765625 C 1.984375 -3.765625 2.125 -3.765625 2.203125 -3.765625 C 2.96875 -3.765625 3.484375 -3.46875 3.484375 -2.75 C 1.71875 -2.734375 0.5 -2.234375 0.5 -1.28125 C 0.5 -0.59375 1.125 0.0625 2.140625 0.0625 C 2.515625 0.0625 3.125 -0.015625 3.59375 -0.3125 C 3.8125 -0.015625 4.296875 0 4.671875 0 C 4.953125 0 5.171875 0 5.171875 -0.3125 Z M 3.484375 -1.328125 C 3.484375 -1.109375 3.484375 -0.890625 3.09375 -0.71875 C 2.734375 -0.546875 2.296875 -0.546875 2.203125 -0.546875 C 1.59375 -0.546875 1.1875 -0.890625 1.1875 -1.28125 C 1.1875 -1.765625 2.046875 -2.125 3.484375 -2.171875 Z M 3.484375 -1.328125 "/>
</g>
<g id="glyph-2-1">
<path d="M 4.859375 -2.15625 C 4.859375 -3.375 3.96875 -4.34375 2.921875 -4.34375 C 2.4375 -4.34375 1.984375 -4.171875 1.65625 -3.859375 C 1.65625 -4.15625 1.625 -4.296875 1.25 -4.296875 L 0.53125 -4.296875 C 0.375 -4.296875 0.125 -4.296875 0.125 -3.984375 C 0.125 -3.6875 0.375 -3.6875 0.515625 -3.6875 L 0.96875 -3.6875 L 0.96875 1.609375 L 0.53125 1.609375 C 0.375 1.609375 0.125 1.609375 0.125 1.90625 C 0.125 2.203125 0.375 2.203125 0.515625 2.203125 L 2.09375 2.203125 C 2.234375 2.203125 2.5 2.203125 2.5 1.90625 C 2.5 1.609375 2.25 1.609375 2.09375 1.609375 L 1.65625 1.609375 L 1.65625 -0.453125 C 2.0625 -0.03125 2.484375 0.0625 2.8125 0.0625 C 3.890625 0.0625 4.859375 -0.890625 4.859375 -2.15625 Z M 4.171875 -2.15625 C 4.171875 -1.1875 3.46875 -0.546875 2.78125 -0.546875 C 2 -0.546875 1.65625 -1.421875 1.65625 -1.90625 L 1.65625 -2.625 C 1.65625 -3.21875 2.234375 -3.75 2.859375 -3.75 C 3.59375 -3.75 4.171875 -3.015625 4.171875 -2.15625 Z M 4.171875 -2.15625 "/>
</g>
<g id="glyph-2-2">
<path d="M 4.5625 -1.25 C 4.5625 -2.28125 3.28125 -2.484375 2.96875 -2.53125 L 2.296875 -2.65625 C 2 -2.703125 1.328125 -2.8125 1.328125 -3.203125 C 1.328125 -3.46875 1.640625 -3.765625 2.59375 -3.765625 C 3.40625 -3.765625 3.546875 -3.46875 3.578125 -3.21875 C 3.59375 -3.046875 3.609375 -2.875 3.921875 -2.875 C 4.265625 -2.875 4.265625 -3.078125 4.265625 -3.28125 L 4.265625 -3.96875 C 4.265625 -4.125 4.265625 -4.375 3.96875 -4.375 C 3.734375 -4.375 3.6875 -4.234375 3.671875 -4.171875 C 3.234375 -4.375 2.796875 -4.375 2.609375 -4.375 C 0.953125 -4.375 0.71875 -3.5625 0.71875 -3.203125 C 0.71875 -2.296875 1.765625 -2.125 2.671875 -1.984375 C 3.171875 -1.90625 3.96875 -1.765625 3.96875 -1.25 C 3.96875 -0.875 3.59375 -0.546875 2.6875 -0.546875 C 2.21875 -0.546875 1.65625 -0.65625 1.40625 -1.4375 C 1.359375 -1.609375 1.328125 -1.71875 1.0625 -1.71875 C 0.71875 -1.71875 0.71875 -1.515625 0.71875 -1.3125 L 0.71875 -0.34375 C 0.71875 -0.1875 0.71875 0.0625 1.015625 0.0625 C 1.109375 0.0625 1.265625 0.046875 1.390625 -0.3125 C 1.875 0.046875 2.40625 0.0625 2.671875 0.0625 C 4.25 0.0625 4.5625 -0.765625 4.5625 -1.25 Z M 4.5625 -1.25 "/>
</g>
<g id="glyph-2-3">
<path d="M 4.65625 -3.046875 C 4.65625 -3.390625 4.3125 -3.390625 4.1875 -3.390625 L 1.03125 -3.390625 C 0.90625 -3.390625 0.5625 -3.390625 0.5625 -3.046875 C 0.5625 -2.703125 0.90625 -2.703125 1.03125 -2.703125 L 4.1875 -2.703125 C 4.3125 -2.703125 4.65625 -2.703125 4.65625 -3.046875 Z M 4.65625 -3.046875 "/>
</g>
<g id="glyph-2-4">
<path d="M 5.09375 -0.3125 C 5.09375 -0.609375 4.84375 -0.609375 4.703125 -0.609375 L 4.25 -0.609375 L 4.25 -5.671875 C 4.25 -5.984375 4.1875 -6.078125 3.859375 -6.078125 L 3.125 -6.078125 C 2.96875 -6.078125 2.71875 -6.078125 2.71875 -5.765625 C 2.71875 -5.46875 2.96875 -5.46875 3.109375 -5.46875 L 3.5625 -5.46875 L 3.5625 -3.90625 C 3.234375 -4.1875 2.828125 -4.34375 2.40625 -4.34375 C 1.3125 -4.34375 0.359375 -3.40625 0.359375 -2.140625 C 0.359375 -0.90625 1.25 0.0625 2.3125 0.0625 C 2.859375 0.0625 3.28125 -0.203125 3.5625 -0.5 C 3.5625 -0.140625 3.5625 0 3.96875 0 L 4.6875 0 C 4.84375 0 5.09375 0 5.09375 -0.3125 Z M 3.5625 -1.9375 C 3.5625 -1.375 3.109375 -0.546875 2.34375 -0.546875 C 1.640625 -0.546875 1.046875 -1.25 1.046875 -2.140625 C 1.046875 -3.09375 1.734375 -3.75 2.4375 -3.75 C 3.078125 -3.75 3.5625 -3.1875 3.5625 -2.640625 Z M 3.5625 -1.9375 "/>
</g>
<g id="glyph-2-5">
<path d="M 4.625 -1.078125 C 4.625 -1.359375 4.328125 -1.359375 4.265625 -1.359375 C 4.09375 -1.359375 4.015625 -1.328125 3.9375 -1.140625 C 3.71875 -0.640625 3.1875 -0.546875 2.90625 -0.546875 C 2.15625 -0.546875 1.40625 -1.046875 1.25 -1.90625 L 4.21875 -1.90625 C 4.421875 -1.90625 4.625 -1.90625 4.625 -2.265625 C 4.625 -3.40625 3.984375 -4.375 2.6875 -4.375 C 1.5 -4.375 0.546875 -3.390625 0.546875 -2.15625 C 0.546875 -0.953125 1.546875 0.0625 2.84375 0.0625 C 4.15625 0.0625 4.625 -0.84375 4.625 -1.078125 Z M 3.90625 -2.5 L 1.265625 -2.5 C 1.40625 -3.21875 1.984375 -3.765625 2.6875 -3.765625 C 3.203125 -3.765625 3.828125 -3.515625 3.90625 -2.5 Z M 3.90625 -2.5 "/>
</g>
<g id="glyph-2-6">
<path d="M 4.34375 -5.546875 C 4.34375 -6.140625 3.546875 -6.140625 3.390625 -6.140625 C 2.59375 -6.140625 1.828125 -5.6875 1.828125 -4.8125 L 1.828125 -4.296875 L 0.84375 -4.296875 C 0.671875 -4.296875 0.421875 -4.296875 0.421875 -3.984375 C 0.421875 -3.6875 0.671875 -3.6875 0.828125 -3.6875 L 1.828125 -3.6875 L 1.828125 -0.609375 L 0.828125 -0.609375 C 0.671875 -0.609375 0.421875 -0.609375 0.421875 -0.3125 C 0.421875 0 0.671875 0 0.828125 0 L 3.515625 0 C 3.671875 0 3.9375 0 3.9375 -0.296875 C 3.9375 -0.609375 3.671875 -0.609375 3.515625 -0.609375 L 2.515625 -0.609375 L 2.515625 -3.6875 L 3.734375 -3.6875 C 3.875 -3.6875 4.125 -3.6875 4.125 -3.984375 C 4.125 -4.296875 3.890625 -4.296875 3.734375 -4.296875 L 2.515625 -4.296875 L 2.515625 -4.75 C 2.515625 -5.53125 3.1875 -5.53125 3.484375 -5.53125 C 3.484375 -5.5 3.578125 -5.109375 3.921875 -5.109375 C 4.125 -5.109375 4.34375 -5.265625 4.34375 -5.546875 Z M 4.34375 -5.546875 "/>
</g>
<g id="glyph-2-7">
<path d="M 5.09375 -0.3125 C 5.09375 -0.609375 4.84375 -0.609375 4.703125 -0.609375 L 4.25 -0.609375 L 4.25 -3.875 C 4.25 -4.1875 4.1875 -4.296875 3.859375 -4.296875 L 3.125 -4.296875 C 2.96875 -4.296875 2.71875 -4.296875 2.71875 -3.984375 C 2.71875 -3.6875 2.96875 -3.6875 3.109375 -3.6875 L 3.5625 -3.6875 L 3.5625 -1.5625 C 3.5625 -0.671875 2.75 -0.546875 2.4375 -0.546875 C 1.65625 -0.546875 1.65625 -0.875 1.65625 -1.1875 L 1.65625 -3.875 C 1.65625 -4.1875 1.59375 -4.296875 1.25 -4.296875 L 0.53125 -4.296875 C 0.375 -4.296875 0.125 -4.296875 0.125 -3.984375 C 0.125 -3.6875 0.375 -3.6875 0.515625 -3.6875 L 0.96875 -3.6875 L 0.96875 -1.140625 C 0.96875 -0.171875 1.65625 0.0625 2.375 0.0625 C 2.78125 0.0625 3.1875 -0.046875 3.5625 -0.3125 C 3.578125 0 3.78125 0 3.96875 0 L 4.6875 0 C 4.84375 0 5.09375 0 5.09375 -0.3125 Z M 5.09375 -0.3125 "/>
</g>
<g id="glyph-2-8">
<path d="M 4.640625 -0.296875 C 4.640625 -0.609375 4.40625 -0.609375 4.25 -0.609375 L 2.953125 -0.609375 L 2.953125 -5.671875 C 2.953125 -5.984375 2.890625 -6.078125 2.5625 -6.078125 L 0.984375 -6.078125 C 0.828125 -6.078125 0.578125 -6.078125 0.578125 -5.765625 C 0.578125 -5.46875 0.84375 -5.46875 0.96875 -5.46875 L 2.265625 -5.46875 L 2.265625 -0.609375 L 0.984375 -0.609375 C 0.828125 -0.609375 0.578125 -0.609375 0.578125 -0.296875 C 0.578125 0 0.84375 0 0.96875 0 L 4.25 0 C 4.40625 0 4.640625 0 4.640625 -0.296875 Z M 4.640625 -0.296875 "/>
</g>
<g id="glyph-2-9">
<path d="M 4.46875 -1.25 C 4.46875 -1.4375 4.46875 -1.640625 4.125 -1.640625 C 3.796875 -1.640625 3.78125 -1.4375 3.78125 -1.265625 C 3.765625 -0.640625 3.203125 -0.546875 2.96875 -0.546875 C 2.203125 -0.546875 2.203125 -1.0625 2.203125 -1.3125 L 2.203125 -3.6875 L 3.84375 -3.6875 C 3.984375 -3.6875 4.234375 -3.6875 4.234375 -3.984375 C 4.234375 -4.296875 4 -4.296875 3.84375 -4.296875 L 2.203125 -4.296875 L 2.203125 -5.109375 C 2.203125 -5.296875 2.203125 -5.515625 1.875 -5.515625 C 1.515625 -5.515625 1.515625 -5.3125 1.515625 -5.109375 L 1.515625 -4.296875 L 0.65625 -4.296875 C 0.5 -4.296875 0.25 -4.296875 0.25 -3.984375 C 0.25 -3.6875 0.5 -3.6875 0.640625 -3.6875 L 1.515625 -3.6875 L 1.515625 -1.25 C 1.515625 -0.296875 2.203125 0.0625 2.921875 0.0625 C 3.65625 0.0625 4.46875 -0.375 4.46875 -1.25 Z M 4.46875 -1.25 "/>
</g>
<g id="glyph-3-0">
<path d="M 6.078125 -0.34375 C 6.078125 -0.6875 5.765625 -0.6875 5.59375 -0.6875 C 5.28125 -0.6875 5.046875 -0.71875 4.875 -0.78125 L 4.875 -3.390625 C 4.875 -4.296875 4.203125 -5.25 2.59375 -5.25 C 2.09375 -5.25 0.9375 -5.25 0.9375 -4.421875 C 0.9375 -4.109375 1.15625 -3.921875 1.421875 -3.921875 C 1.5 -3.921875 1.890625 -3.953125 1.890625 -4.453125 C 1.890625 -4.515625 1.90625 -4.53125 2.15625 -4.546875 C 2.296875 -4.5625 2.453125 -4.5625 2.609375 -4.5625 C 2.875 -4.5625 3.28125 -4.5625 3.671875 -4.265625 C 4.109375 -3.921875 4.109375 -3.59375 4.109375 -3.25 C 3.40625 -3.21875 2.703125 -3.171875 1.96875 -2.9375 C 1.375 -2.734375 0.609375 -2.296875 0.609375 -1.5 C 0.609375 -0.640625 1.359375 0.078125 2.46875 0.078125 C 2.859375 0.078125 3.59375 0.015625 4.21875 -0.421875 C 4.453125 -0.03125 5.046875 0 5.5 0 C 5.796875 0 6.078125 0 6.078125 -0.34375 Z M 4.109375 -1.578125 C 4.109375 -1.296875 4.109375 -1.046875 3.609375 -0.828125 C 3.203125 -0.625 2.640625 -0.625 2.609375 -0.625 C 1.890625 -0.625 1.390625 -1 1.390625 -1.5 C 1.390625 -2.203125 2.65625 -2.609375 4.109375 -2.609375 Z M 4.109375 -1.578125 "/>
</g>
<g id="glyph-3-1">
<path d="M 5.6875 -2.578125 C 5.6875 -4.046875 4.6875 -5.21875 3.453125 -5.21875 C 2.578125 -5.21875 2.03125 -4.6875 1.921875 -4.578125 C 1.921875 -4.96875 1.921875 -5.140625 1.4375 -5.140625 L 0.65625 -5.140625 C 0.484375 -5.140625 0.171875 -5.140625 0.171875 -4.796875 C 0.171875 -4.453125 0.484375 -4.453125 0.65625 -4.453125 L 1.140625 -4.453125 L 1.140625 1.953125 L 0.65625 1.953125 C 0.484375 1.953125 0.171875 1.953125 0.171875 2.296875 C 0.171875 2.65625 0.484375 2.65625 0.65625 2.65625 L 2.40625 2.65625 C 2.578125 2.65625 2.890625 2.65625 2.890625 2.296875 C 2.890625 1.953125 2.578125 1.953125 2.40625 1.953125 L 1.921875 1.953125 L 1.921875 -0.59375 C 2.203125 -0.28125 2.65625 0.078125 3.3125 0.078125 C 4.578125 0.078125 5.6875 -1.0625 5.6875 -2.578125 Z M 4.921875 -2.578125 C 4.921875 -1.4375 4.109375 -0.625 3.265625 -0.625 C 2.359375 -0.625 1.921875 -1.640625 1.921875 -2.234375 L 1.921875 -3.171875 C 1.921875 -3.859375 2.59375 -4.53125 3.359375 -4.53125 C 4.21875 -4.53125 4.921875 -3.65625 4.921875 -2.578125 Z M 4.921875 -2.578125 "/>
</g>
<g id="glyph-3-2">
<path d="M 5.359375 -1.484375 C 5.359375 -2.71875 3.875 -2.96875 3.3125 -3.0625 C 2.25 -3.234375 1.546875 -3.359375 1.546875 -3.859375 C 1.546875 -4.171875 1.90625 -4.5625 3.03125 -4.5625 C 4.171875 -4.5625 4.21875 -4.015625 4.234375 -3.71875 C 4.265625 -3.46875 4.484375 -3.4375 4.625 -3.4375 C 5.015625 -3.4375 5.015625 -3.65625 5.015625 -3.890625 L 5.015625 -4.796875 C 5.015625 -4.984375 5.015625 -5.25 4.671875 -5.25 C 4.390625 -5.25 4.328125 -4.96875 4.328125 -4.96875 C 3.84375 -5.25 3.296875 -5.25 3.0625 -5.25 C 1.109375 -5.25 0.84375 -4.265625 0.84375 -3.859375 C 0.84375 -3.359375 1.140625 -3.03125 1.546875 -2.8125 C 1.921875 -2.59375 2.265625 -2.53125 3.25 -2.375 C 3.71875 -2.296875 4.671875 -2.140625 4.671875 -1.484375 C 4.671875 -1.03125 4.265625 -0.625 3.15625 -0.625 C 2.390625 -0.625 1.890625 -0.921875 1.640625 -1.78125 C 1.578125 -1.953125 1.546875 -2.078125 1.234375 -2.078125 C 0.84375 -2.078125 0.84375 -1.84375 0.84375 -1.609375 L 0.84375 -0.375 C 0.84375 -0.1875 0.84375 0.078125 1.1875 0.078125 C 1.328125 0.078125 1.4375 0.078125 1.609375 -0.421875 C 2.15625 0.03125 2.78125 0.078125 3.15625 0.078125 C 5.359375 0.078125 5.359375 -1.359375 5.359375 -1.484375 Z M 5.359375 -1.484375 "/>
</g>
<g id="glyph-3-3">
<path d="M 5.484375 -3.640625 C 5.484375 -4.03125 5.109375 -4.03125 4.9375 -4.03125 L 1.1875 -4.03125 C 1.03125 -4.03125 0.65625 -4.03125 0.65625 -3.65625 C 0.65625 -3.265625 1.03125 -3.265625 1.1875 -3.265625 L 4.9375 -3.265625 C 5.09375 -3.265625 5.484375 -3.265625 5.484375 -3.640625 Z M 5.484375 -3.640625 "/>
</g>
<g id="glyph-3-4">
<path d="M 5.4375 -1.296875 C 5.4375 -1.375 5.421875 -1.640625 5.046875 -1.640625 C 4.828125 -1.640625 4.75 -1.546875 4.671875 -1.375 C 4.375 -0.6875 3.609375 -0.625 3.375 -0.625 C 2.390625 -0.625 1.59375 -1.375 1.46875 -2.296875 L 4.96875 -2.296875 C 5.21875 -2.296875 5.4375 -2.296875 5.4375 -2.734375 C 5.4375 -4.125 4.65625 -5.25 3.15625 -5.25 C 1.78125 -5.25 0.671875 -4.0625 0.671875 -2.609375 C 0.671875 -1.09375 1.875 0.078125 3.34375 0.078125 C 4.875 0.078125 5.4375 -0.984375 5.4375 -1.296875 Z M 4.65625 -2.953125 L 1.484375 -2.953125 C 1.640625 -3.96875 2.40625 -4.5625 3.15625 -4.5625 C 4.359375 -4.5625 4.609375 -3.546875 4.65625 -2.953125 Z M 4.65625 -2.953125 "/>
</g>
<g id="glyph-3-5">
<path d="M 5.796875 -0.34375 C 5.796875 -0.6875 5.484375 -0.6875 5.328125 -0.6875 L 4.90625 -0.6875 L 3.359375 -2.65625 L 4.734375 -4.453125 L 5.15625 -4.453125 C 5.328125 -4.453125 5.640625 -4.453125 5.640625 -4.796875 C 5.640625 -5.140625 5.328125 -5.140625 5.15625 -5.140625 L 3.828125 -5.140625 C 3.671875 -5.140625 3.359375 -5.140625 3.359375 -4.796875 C 3.359375 -4.453125 3.640625 -4.453125 3.921875 -4.453125 L 3.03125 -3.21875 L 2.109375 -4.453125 C 2.390625 -4.453125 2.671875 -4.453125 2.671875 -4.796875 C 2.671875 -5.140625 2.359375 -5.140625 2.203125 -5.140625 L 0.875 -5.140625 C 0.703125 -5.140625 0.390625 -5.140625 0.390625 -4.796875 C 0.390625 -4.453125 0.703125 -4.453125 0.875 -4.453125 L 1.296875 -4.453125 L 2.703125 -2.65625 L 1.21875 -0.6875 L 0.8125 -0.6875 C 0.640625 -0.6875 0.328125 -0.6875 0.328125 -0.34375 C 0.328125 0 0.640625 0 0.8125 0 L 2.125 0 C 2.296875 0 2.609375 0 2.609375 -0.34375 C 2.609375 -0.6875 2.328125 -0.6875 2 -0.6875 L 3.03125 -2.203125 L 4.109375 -0.6875 C 3.8125 -0.6875 3.515625 -0.6875 3.515625 -0.34375 C 3.515625 0 3.828125 0 4 0 L 5.328125 0 C 5.484375 0 5.796875 0 5.796875 -0.34375 Z M 5.796875 -0.34375 "/>
</g>
<g id="glyph-3-6">
<path d="M 5.25 -1.46875 C 5.25 -1.703125 5.25 -1.96875 4.859375 -1.96875 C 4.484375 -1.96875 4.484375 -1.703125 4.484375 -1.453125 C 4.46875 -0.734375 3.78125 -0.625 3.515625 -0.625 C 2.578125 -0.625 2.578125 -1.21875 2.578125 -1.5 L 2.578125 -4.453125 L 4.515625 -4.453125 C 4.671875 -4.453125 4.984375 -4.453125 4.984375 -4.796875 C 4.984375 -5.140625 4.671875 -5.140625 4.515625 -5.140625 L 2.578125 -5.140625 L 2.578125 -6.125 C 2.578125 -6.34375 2.578125 -6.609375 2.203125 -6.609375 C 1.796875 -6.609375 1.796875 -6.34375 1.796875 -6.125 L 1.796875 -5.140625 L 0.78125 -5.140625 C 0.625 -5.140625 0.296875 -5.140625 0.296875 -4.796875 C 0.296875 -4.453125 0.609375 -4.453125 0.78125 -4.453125 L 1.796875 -4.453125 L 1.796875 -1.4375 C 1.796875 -0.328125 2.5625 0.078125 3.421875 0.078125 C 4.078125 0.078125 5.25 -0.25 5.25 -1.46875 Z M 5.25 -1.46875 "/>
</g>
<g id="glyph-3-7">
<path d="M 5.703125 -4.515625 C 5.703125 -5.03125 5.203125 -5.21875 4.609375 -5.21875 C 3.8125 -5.21875 3.125 -4.859375 2.578125 -4.1875 L 2.578125 -4.65625 C 2.578125 -5.03125 2.5 -5.140625 2.09375 -5.140625 L 0.890625 -5.140625 C 0.734375 -5.140625 0.421875 -5.140625 0.421875 -4.796875 C 0.421875 -4.453125 0.734375 -4.453125 0.890625 -4.453125 L 1.796875 -4.453125 L 1.796875 -0.6875 L 0.890625 -0.6875 C 0.734375 -0.6875 0.421875 -0.6875 0.421875 -0.34375 C 0.421875 0 0.734375 0 0.890625 0 L 3.828125 0 C 4 0 4.3125 0 4.3125 -0.34375 C 4.3125 -0.6875 4 -0.6875 3.828125 -0.6875 L 2.578125 -0.6875 L 2.578125 -2.25 C 2.578125 -3.671875 3.578125 -4.53125 4.59375 -4.53125 C 4.65625 -4.53125 4.734375 -4.53125 4.78125 -4.515625 C 4.828125 -4.078125 5.15625 -4.046875 5.234375 -4.046875 C 5.515625 -4.046875 5.703125 -4.25 5.703125 -4.515625 Z M 5.703125 -4.515625 "/>
</g>
<g id="glyph-3-8">
<path d="M 5.953125 -0.34375 C 5.953125 -0.6875 5.640625 -0.6875 5.484375 -0.6875 L 4.984375 -0.6875 L 4.984375 -3.5 C 4.984375 -4.671875 4.4375 -5.21875 3.46875 -5.21875 C 2.65625 -5.21875 2.125 -4.765625 1.921875 -4.53125 C 1.921875 -4.984375 1.921875 -5.140625 1.4375 -5.140625 L 0.65625 -5.140625 C 0.484375 -5.140625 0.171875 -5.140625 0.171875 -4.796875 C 0.171875 -4.453125 0.484375 -4.453125 0.65625 -4.453125 L 1.140625 -4.453125 L 1.140625 -0.6875 L 0.65625 -0.6875 C 0.484375 -0.6875 0.171875 -0.6875 0.171875 -0.34375 C 0.171875 0 0.484375 0 0.65625 0 L 2.40625 0 C 2.578125 0 2.890625 0 2.890625 -0.34375 C 2.890625 -0.6875 2.578125 -0.6875 2.40625 -0.6875 L 1.921875 -0.6875 L 1.921875 -2.859375 C 1.921875 -4.015625 2.734375 -4.53125 3.375 -4.53125 C 4.078125 -4.53125 4.21875 -4.125 4.21875 -3.453125 L 4.21875 -0.6875 L 3.71875 -0.6875 C 3.5625 -0.6875 3.25 -0.6875 3.25 -0.34375 C 3.25 0 3.5625 0 3.71875 0 L 5.484375 0 C 5.640625 0 5.953125 0 5.953125 -0.34375 Z M 5.953125 -0.34375 "/>
</g>
<g id="glyph-3-9">
<path d="M 5.390625 -0.34375 C 5.390625 -0.6875 5.078125 -0.6875 4.921875 -0.6875 L 3.46875 -0.6875 L 3.46875 -6.796875 C 3.46875 -7.171875 3.390625 -7.296875 2.984375 -7.296875 L 1.234375 -7.296875 C 1.0625 -7.296875 0.75 -7.296875 0.75 -6.953125 C 0.75 -6.59375 1.0625 -6.59375 1.234375 -6.59375 L 2.6875 -6.59375 L 2.6875 -0.6875 L 1.234375 -0.6875 C 1.0625 -0.6875 0.75 -0.6875 0.75 -0.34375 C 0.75 0 1.0625 0 1.234375 0 L 4.921875 0 C 5.078125 0 5.390625 0 5.390625 -0.34375 Z M 5.390625 -0.34375 "/>
</g>
<g id="glyph-3-10">
<path d="M 5.4375 -1.296875 C 5.4375 -1.609375 5.140625 -1.609375 5.046875 -1.609375 C 4.78125 -1.609375 4.734375 -1.515625 4.671875 -1.34375 C 4.40625 -0.6875 3.8125 -0.625 3.53125 -0.625 C 2.515625 -0.625 1.65625 -1.46875 1.65625 -2.578125 C 1.65625 -3.1875 2 -4.5625 3.5625 -4.5625 C 3.890625 -4.5625 4.140625 -4.53125 4.25 -4.53125 C 4.328125 -4.5 4.34375 -4.484375 4.34375 -4.421875 C 4.375 -3.9375 4.75 -3.921875 4.828125 -3.921875 C 5.078125 -3.921875 5.3125 -4.109375 5.3125 -4.421875 C 5.3125 -5.25 4.109375 -5.25 3.578125 -5.25 C 1.546875 -5.25 0.890625 -3.578125 0.890625 -2.578125 C 0.890625 -1.125 2 0.078125 3.421875 0.078125 C 5.03125 0.078125 5.4375 -1.109375 5.4375 -1.296875 Z M 5.4375 -1.296875 "/>
</g>
<g id="glyph-3-11">
<path d="M 5.453125 -7.890625 C 5.453125 -8.140625 5.25 -8.28125 5.078125 -8.28125 C 4.828125 -8.28125 4.734375 -8.078125 4.671875 -7.96875 L 0.75 0.34375 C 0.71875 0.4375 0.6875 0.515625 0.6875 0.59375 C 0.6875 0.84375 0.890625 0.984375 1.0625 0.984375 C 1.3125 0.984375 1.40625 0.796875 1.46875 0.671875 L 5.390625 -7.640625 C 5.421875 -7.71875 5.453125 -7.8125 5.453125 -7.890625 Z M 5.453125 -7.890625 "/>
</g>
<g id="glyph-3-12">
<path d="M 5.9375 -0.34375 C 5.9375 -0.6875 5.625 -0.6875 5.453125 -0.6875 L 5.140625 -0.6875 L 3.359375 -3.046875 L 4.84375 -4.453125 L 5.203125 -4.453125 C 5.375 -4.453125 5.6875 -4.453125 5.6875 -4.796875 C 5.6875 -5.140625 5.375 -5.140625 5.203125 -5.140625 L 3.46875 -5.140625 C 3.296875 -5.140625 2.96875 -5.140625 2.96875 -4.796875 C 2.96875 -4.453125 3.296875 -4.453125 3.46875 -4.453125 L 3.875 -4.453125 L 1.953125 -2.609375 L 1.953125 -6.796875 C 1.953125 -7.171875 1.875 -7.296875 1.46875 -7.296875 L 0.734375 -7.296875 C 0.578125 -7.296875 0.25 -7.296875 0.25 -6.953125 C 0.25 -6.59375 0.578125 -6.59375 0.734375 -6.59375 L 1.28125 -6.59375 L 1.28125 -0.6875 L 0.734375 -0.6875 C 0.578125 -0.6875 0.25 -0.6875 0.25 -0.34375 C 0.25 0 0.578125 0 0.734375 0 L 2.484375 0 C 2.65625 0 2.96875 0 2.96875 -0.34375 C 2.96875 -0.6875 2.65625 -0.6875 2.484375 -0.6875 L 1.953125 -0.6875 L 1.953125 -1.6875 L 2.875 -2.578125 L 4.296875 -0.6875 C 3.921875 -0.6875 3.625 -0.6875 3.625 -0.34375 C 3.625 0 3.953125 0 4.125 0 L 5.453125 0 C 5.625 0 5.9375 0 5.9375 -0.34375 Z M 5.9375 -0.34375 "/>
</g>
<g id="glyph-3-13">
<path d="M 5.953125 -0.34375 C 5.953125 -0.6875 5.640625 -0.6875 5.484375 -0.6875 L 4.984375 -0.6875 L 4.984375 -3.5 C 4.984375 -4.671875 4.4375 -5.21875 3.46875 -5.21875 C 2.65625 -5.21875 2.125 -4.765625 1.921875 -4.53125 L 1.921875 -6.796875 C 1.921875 -7.171875 1.84375 -7.296875 1.4375 -7.296875 L 0.65625 -7.296875 C 0.484375 -7.296875 0.171875 -7.296875 0.171875 -6.953125 C 0.171875 -6.59375 0.484375 -6.59375 0.65625 -6.59375 L 1.140625 -6.59375 L 1.140625 -0.6875 L 0.65625 -0.6875 C 0.484375 -0.6875 0.171875 -0.6875 0.171875 -0.34375 C 0.171875 0 0.484375 0 0.65625 0 L 2.40625 0 C 2.578125 0 2.890625 0 2.890625 -0.34375 C 2.890625 -0.6875 2.578125 -0.6875 2.40625 -0.6875 L 1.921875 -0.6875 L 1.921875 -2.859375 C 1.921875 -4.015625 2.734375 -4.53125 3.375 -4.53125 C 4.078125 -4.53125 4.21875 -4.125 4.21875 -3.453125 L 4.21875 -0.6875 L 3.71875 -0.6875 C 3.5625 -0.6875 3.25 -0.6875 3.25 -0.34375 C 3.25 0 3.5625 0 3.71875 0 L 5.484375 0 C 5.640625 0 5.953125 0 5.953125 -0.34375 Z M 5.953125 -0.34375 "/>
</g>
<g id="glyph-4-0">
<path d="M 3.34375 -0.828125 L 3.34375 -7.046875 C 3.34375 -7.609375 3.21875 -7.875 2.515625 -7.875 L 1.875 -7.875 C 1.25 -7.875 1.046875 -7.6875 1.046875 -7.046875 L 1.046875 -0.828125 C 1.046875 -0.203125 1.234375 0 1.875 0 L 2.515625 0 C 3.171875 0 3.34375 -0.21875 3.34375 -0.828125 Z M 3.453125 -10.421875 L 3.453125 -10.75 C 3.453125 -11.296875 3.34375 -11.578125 2.625 -11.578125 L 1.75 -11.578125 C 1.09375 -11.578125 0.921875 -11.359375 0.921875 -10.75 L 0.921875 -10.421875 C 0.921875 -9.921875 1.015625 -9.59375 1.75 -9.59375 L 2.625 -9.59375 C 3.359375 -9.59375 3.453125 -9.90625 3.453125 -10.421875 Z M 3.453125 -10.421875 "/>
</g>
<g id="glyph-4-1">
<path d="M 8.59375 -0.828125 L 8.59375 -5.59375 C 8.59375 -7.359375 7.84375 -8.0625 6.09375 -8.0625 C 4.28125 -8.0625 3.515625 -6.765625 3.28125 -6.296875 L 3.265625 -6.296875 L 3.265625 -7.15625 C 3.265625 -7.703125 3.140625 -7.984375 2.4375 -7.984375 L 1.859375 -7.984375 C 1.234375 -7.984375 1.03125 -7.796875 1.03125 -7.15625 L 1.03125 -0.828125 C 1.03125 -0.203125 1.21875 0 1.859375 0 L 2.546875 0 C 3.203125 0 3.375 -0.21875 3.375 -0.828125 L 3.375 -4.625 C 3.375 -6.125 4.375 -6.828125 5.265625 -6.828125 C 6.09375 -6.828125 6.265625 -6.4375 6.265625 -5.5625 L 6.265625 -0.828125 C 6.265625 -0.28125 6.375 0 7.09375 0 L 7.78125 0 C 8.421875 0 8.59375 -0.21875 8.59375 -0.828125 Z M 8.59375 -0.828125 "/>
</g>
<g id="glyph-4-2">
<path d="M 9 -3.96875 C 9 -4.8125 9 -8.0625 5.890625 -8.0625 C 4.875 -8.0625 3.953125 -7.65625 3.34375 -7.078125 C 3.34375 -7.703125 3.09375 -7.875 2.515625 -7.875 L 1.875 -7.875 C 1.25 -7.875 1.046875 -7.6875 1.046875 -7.046875 L 1.046875 2.515625 C 1.046875 3.125 1.234375 3.34375 1.875 3.34375 L 2.5625 3.34375 C 3.21875 3.34375 3.390625 3.109375 3.390625 2.515625 L 3.390625 -0.671875 C 4.15625 0.1875 5.109375 0.1875 5.34375 0.1875 C 9 0.1875 9 -3.109375 9 -3.96875 Z M 6.65625 -3.9375 C 6.65625 -3.25 6.65625 -1.046875 4.71875 -1.046875 C 4.3125 -1.046875 4.015625 -1.1875 3.796875 -1.34375 C 3.390625 -1.640625 3.390625 -1.71875 3.390625 -2.03125 L 3.390625 -6.15625 C 3.578125 -6.328125 4.140625 -6.71875 4.890625 -6.71875 C 6.640625 -6.71875 6.65625 -4.703125 6.65625 -3.9375 Z M 6.65625 -3.9375 "/>
</g>
<g id="glyph-4-3">
<path d="M 8.59375 -0.828125 L 8.59375 -7.046875 C 8.59375 -7.609375 8.484375 -7.875 7.78125 -7.875 L 7.09375 -7.875 C 6.4375 -7.875 6.265625 -7.65625 6.265625 -7.046875 L 6.265625 -2.96875 C 6.265625 -1.84375 5.65625 -0.859375 4.4375 -0.859375 C 3.46875 -0.859375 3.375 -1.09375 3.375 -2.015625 L 3.375 -7.046875 C 3.375 -7.609375 3.25 -7.875 2.546875 -7.875 L 1.859375 -7.875 C 1.234375 -7.875 1.03125 -7.6875 1.03125 -7.046875 L 1.03125 -2.171875 C 1.03125 -0.328125 2.03125 0.1875 3.8125 0.1875 C 4.28125 0.1875 5.5 0.1875 6.3125 -1.265625 L 6.3125 -0.828125 C 6.3125 -0.28125 6.4375 0 7.140625 0 L 7.78125 0 C 8.421875 0 8.59375 -0.21875 8.59375 -0.828125 Z M 8.59375 -0.828125 "/>
</g>
<g id="glyph-4-4">
<path d="M 6.421875 -0.8125 C 6.421875 -0.859375 6.375 -0.984375 6.28125 -1.34375 C 6.1875 -1.6875 6.15625 -1.796875 6 -1.796875 C 5.921875 -1.796875 5.90625 -1.765625 5.796875 -1.671875 C 5.609375 -1.53125 5.140625 -1.15625 4.421875 -1.15625 C 4.015625 -1.15625 3.75 -1.4375 3.75 -2.578125 L 3.75 -6.640625 L 5.28125 -6.640625 C 5.484375 -6.640625 6.109375 -6.640625 6.109375 -7.265625 C 6.109375 -7.875 5.484375 -7.875 5.28125 -7.875 L 3.75 -7.875 L 3.75 -9.3125 C 3.75 -9.859375 3.625 -10.125 2.921875 -10.125 L 2.390625 -10.125 C 1.765625 -10.125 1.5625 -9.9375 1.5625 -9.3125 L 1.5625 -7.875 L 1.171875 -7.875 C 0.984375 -7.875 0.34375 -7.875 0.34375 -7.265625 C 0.34375 -6.640625 0.96875 -6.640625 1.171875 -6.640625 L 1.515625 -6.640625 L 1.515625 -2.28125 C 1.515625 -0.546875 2.140625 0.1875 3.3125 0.1875 C 3.46875 0.1875 4.234375 0.1875 5.125 -0.09375 C 5.421875 -0.171875 6.421875 -0.484375 6.421875 -0.8125 Z M 6.421875 -0.8125 "/>
</g>
<g id="glyph-4-5">
<path d="M 6.8125 -2.421875 C 6.8125 -3.390625 6.296875 -3.984375 5.984375 -4.265625 C 5.296875 -4.890625 4.703125 -4.984375 3.96875 -5.125 C 3.03125 -5.296875 2.34375 -5.4375 2.34375 -6.109375 C 2.34375 -6.8125 2.90625 -6.953125 3.578125 -6.953125 C 4.734375 -6.953125 5.34375 -6.515625 5.796875 -6.140625 C 5.96875 -5.96875 6 -5.96875 6.078125 -5.96875 C 6.25 -5.96875 6.28125 -6.125 6.296875 -6.1875 C 6.328125 -6.328125 6.5 -7.296875 6.5 -7.375 C 6.5 -7.65625 5.59375 -7.890625 5.40625 -7.96875 C 4.71875 -8.15625 4.15625 -8.171875 3.71875 -8.171875 C 2.9375 -8.171875 0.640625 -8.171875 0.640625 -5.71875 C 0.640625 -4.875 1.015625 -4.359375 1.484375 -3.9375 C 2.078125 -3.390625 2.75 -3.265625 3.734375 -3.078125 C 4.234375 -3 5.109375 -2.84375 5.109375 -2.078125 C 5.109375 -1.265625 4.4375 -1.15625 3.765625 -1.15625 C 3.015625 -1.15625 2.046875 -1.375 1.234375 -2.34375 C 1.15625 -2.421875 1.09375 -2.484375 1 -2.484375 C 0.828125 -2.484375 0.796875 -2.328125 0.78125 -2.21875 C 0.734375 -1.984375 0.53125 -1 0.53125 -0.828125 C 0.53125 -0.515625 1.828125 -0.109375 1.828125 -0.109375 C 2.765625 0.1875 3.46875 0.1875 3.765625 0.1875 C 4.640625 0.1875 6.8125 0.125 6.8125 -2.421875 Z M 6.8125 -2.421875 "/>
</g>
<g id="glyph-4-6">
<path d="M 8.390625 -12.1875 C 8.390625 -12.5625 8.078125 -12.90625 7.671875 -12.90625 C 7.171875 -12.90625 7 -12.46875 6.953125 -12.3125 L 1.15625 3.1875 C 1.046875 3.4375 1.046875 3.453125 1.046875 3.578125 C 1.046875 3.953125 1.359375 4.296875 1.765625 4.296875 C 2.265625 4.296875 2.4375 3.875 2.5 3.71875 L 8.296875 -11.78125 C 8.390625 -12.046875 8.390625 -12.0625 8.390625 -12.1875 Z M 8.390625 -12.1875 "/>
</g>
<g id="glyph-4-7">
<path d="M 8.578125 -0.828125 L 8.578125 -11.109375 C 8.578125 -11.65625 8.46875 -11.9375 7.765625 -11.9375 L 7.125 -11.9375 C 6.46875 -11.9375 6.296875 -11.71875 6.296875 -11.109375 L 6.296875 -7.203125 C 5.515625 -7.953125 4.65625 -8.0625 4.125 -8.0625 C 0.640625 -8.0625 0.640625 -4.765625 0.640625 -3.921875 C 0.640625 -3.125 0.640625 0.1875 4.046875 0.1875 C 4.765625 0.1875 5.5 -0.015625 6.25 -0.8125 C 6.25 -0.171875 6.484375 0 7.078125 0 L 7.765625 0 C 8.40625 0 8.578125 -0.21875 8.578125 -0.828125 Z M 6.25 -2.15625 C 6.25 -1.859375 6.25 -1.703125 5.75 -1.359375 C 5.3125 -1.078125 4.921875 -1.046875 4.71875 -1.046875 C 2.96875 -1.046875 2.96875 -2.625 2.96875 -3.921875 C 2.96875 -5.21875 2.96875 -6.828125 4.90625 -6.828125 C 5.40625 -6.828125 5.859375 -6.65625 6.25 -6.296875 Z M 6.25 -2.15625 "/>
</g>
<g id="glyph-4-8">
<path d="M 8.234375 -4.46875 C 8.234375 -6.6875 7.203125 -8.171875 4.640625 -8.171875 C 1.890625 -8.171875 0.53125 -6.625 0.53125 -4.015625 C 0.53125 -1.1875 2.171875 0.1875 4.875 0.1875 C 5.515625 0.1875 6.5 0.109375 7.640625 -0.46875 C 8.015625 -0.65625 8.140625 -0.703125 8.140625 -0.90625 C 8.140625 -1.03125 8.078125 -1.53125 8.0625 -1.671875 C 8 -2.203125 7.984375 -2.21875 7.828125 -2.21875 C 7.765625 -2.21875 7.71875 -2.21875 7.53125 -2.046875 C 6.515625 -1.171875 5.484375 -1.046875 4.9375 -1.046875 C 3 -1.046875 2.78125 -2.578125 2.734375 -3.6875 L 7.421875 -3.6875 C 7.8125 -3.6875 8.234375 -3.703125 8.234375 -4.46875 Z M 6.328125 -4.59375 L 2.75 -4.59375 C 2.796875 -5.640625 3.140625 -6.9375 4.640625 -6.9375 C 6.015625 -6.9375 6.28125 -5.9375 6.328125 -4.59375 Z M 6.328125 -4.59375 "/>
</g>
<g id="glyph-4-9">
<path d="M 6.546875 -10.6875 L 6.546875 -11.46875 C 6.546875 -11.890625 6.53125 -11.90625 5.953125 -12.03125 C 5.453125 -12.125 5.09375 -12.125 4.828125 -12.125 C 3.546875 -12.125 1.484375 -11.828125 1.484375 -9.25 L 1.484375 -7.875 C 1.125 -7.875 0.515625 -7.875 0.515625 -7.265625 C 0.515625 -6.640625 1.09375 -6.640625 1.484375 -6.640625 L 1.484375 -0.828125 C 1.484375 -0.203125 1.671875 0 2.3125 0 L 2.9375 0 C 3.59375 0 3.765625 -0.21875 3.765625 -0.828125 L 3.765625 -6.640625 L 4.59375 -6.640625 C 4.796875 -6.640625 5.421875 -6.640625 5.421875 -7.265625 C 5.421875 -7.875 4.796875 -7.875 4.59375 -7.875 L 3.71875 -7.875 L 3.71875 -9.75 C 3.71875 -10.203125 3.71875 -10.890625 4.828125 -10.890625 C 5.390625 -10.890625 5.734375 -10.734375 6.078125 -10.40625 C 6.1875 -10.265625 6.25 -10.234375 6.328125 -10.234375 C 6.546875 -10.234375 6.546875 -10.40625 6.546875 -10.6875 Z M 6.546875 -10.6875 "/>
</g>
<g id="glyph-4-10">
<path d="M 8.15625 -0.828125 L 8.15625 -5.4375 C 8.15625 -8.15625 5.546875 -8.171875 4.671875 -8.171875 C 3.875 -8.171875 3.015625 -8.109375 1.859375 -7.625 C 1.5 -7.46875 1.40625 -7.421875 1.40625 -7.21875 C 1.40625 -7.109375 1.515625 -6.109375 1.53125 -5.96875 C 1.546875 -5.859375 1.640625 -5.78125 1.75 -5.78125 C 1.84375 -5.78125 1.890625 -5.828125 1.9375 -5.890625 C 2.6875 -6.65625 3.546875 -7.03125 4.609375 -7.03125 C 5.546875 -7.03125 5.8125 -6.46875 5.8125 -5.453125 L 5.8125 -4.84375 C 5.21875 -4.84375 0.703125 -4.8125 0.703125 -2.28125 C 0.703125 -1.078125 1.671875 0.1875 3.1875 0.1875 C 3.765625 0.1875 5.0625 0.015625 5.859375 -1.171875 L 5.859375 -0.828125 C 5.859375 -0.28125 5.984375 0 6.6875 0 L 7.328125 0 C 7.984375 0 8.15625 -0.21875 8.15625 -0.828125 Z M 5.8125 -2.65625 C 5.8125 -1.046875 4.1875 -1.046875 4.125 -1.046875 C 3.40625 -1.046875 2.9375 -1.671875 2.9375 -2.328125 C 2.9375 -4.015625 5.328125 -4.125 5.8125 -4.140625 Z M 5.8125 -2.65625 "/>
</g>
<g id="glyph-4-11">
<path d="M 3.34375 -0.828125 L 3.34375 -11.109375 C 3.34375 -11.65625 3.21875 -11.9375 2.515625 -11.9375 L 1.875 -11.9375 C 1.25 -11.9375 1.046875 -11.75 1.046875 -11.109375 L 1.046875 -0.828125 C 1.046875 -0.203125 1.234375 0 1.875 0 L 2.515625 0 C 3.171875 0 3.34375 -0.21875 3.34375 -0.828125 Z M 3.34375 -0.828125 "/>
</g>
<g id="glyph-4-12">
<path d="M 3.75 -0.46875 L 3.75 -1.796875 C 3.75 -2.234375 3.734375 -2.25 3.28125 -2.25 L 1.96875 -2.25 C 1.515625 -2.25 1.5 -2.234375 1.5 -1.796875 L 1.5 -0.46875 C 1.5 -0.015625 1.515625 0 1.96875 0 L 3.28125 0 C 3.734375 0 3.75 -0.015625 3.75 -0.46875 Z M 3.75 -0.46875 "/>
</g>
<g id="glyph-4-13">
<path d="M 8.140625 -7.421875 C 8.140625 -7.875 7.671875 -7.875 7.453125 -7.875 L 7.078125 -7.875 C 6.796875 -7.875 6.421875 -7.875 6.15625 -7.484375 C 6.109375 -7.390625 4.71875 -3.59375 4.625 -2.4375 L 4.609375 -2.4375 C 4.53125 -3.28125 3.8125 -4.890625 3.078125 -6.53125 C 2.59375 -7.625 2.484375 -7.875 1.609375 -7.875 L 1.171875 -7.875 C 0.921875 -7.875 0.5 -7.875 0.5 -7.4375 C 0.5 -7.359375 0.546875 -7.25 0.578125 -7.15625 L 3.84375 0 C 3.703125 0.359375 3.640625 0.546875 3.59375 0.71875 C 3.390625 1.296875 3.09375 2.0625 2.171875 2.0625 C 1.59375 2.0625 1.203125 1.828125 1.015625 1.703125 C 0.921875 1.65625 0.890625 1.640625 0.84375 1.640625 C 0.75 1.640625 0.625 1.6875 0.625 1.890625 C 0.625 2.03125 0.71875 3.21875 0.78125 3.28125 C 0.921875 3.5 1.859375 3.53125 2.140625 3.53125 C 4.265625 3.53125 5.109375 1.5 5.25 1.078125 L 8.046875 -7.078125 C 8.140625 -7.296875 8.140625 -7.328125 8.140625 -7.421875 Z M 8.140625 -7.421875 "/>
</g>
<g id="glyph-4-14">
<path d="M 13.859375 -0.828125 L 13.859375 -5.59375 C 13.859375 -7.359375 13.109375 -8.0625 11.359375 -8.0625 C 10.125 -8.0625 9.1875 -7.5 8.5625 -6.359375 C 8.296875 -8.015625 6.828125 -8.0625 6.109375 -8.0625 C 5.78125 -8.0625 5.0625 -8.0625 4.28125 -7.5 C 3.75 -7.109375 3.40625 -6.546875 3.28125 -6.296875 L 3.265625 -6.296875 L 3.265625 -7.15625 C 3.265625 -7.703125 3.140625 -7.984375 2.4375 -7.984375 L 1.859375 -7.984375 C 1.234375 -7.984375 1.03125 -7.796875 1.03125 -7.15625 L 1.03125 -0.828125 C 1.03125 -0.203125 1.21875 0 1.859375 0 L 2.546875 0 C 3.203125 0 3.375 -0.21875 3.375 -0.828125 L 3.375 -4.625 C 3.375 -6.171875 4.421875 -6.828125 5.265625 -6.828125 C 6.09375 -6.828125 6.28125 -6.46875 6.28125 -5.5625 L 6.28125 -0.828125 C 6.28125 -0.203125 6.46875 0 7.109375 0 L 7.796875 0 C 8.453125 0 8.625 -0.21875 8.625 -0.828125 L 8.625 -4.625 C 8.625 -6.171875 9.671875 -6.828125 10.515625 -6.828125 C 11.34375 -6.828125 11.53125 -6.46875 11.53125 -5.5625 L 11.53125 -0.828125 C 11.53125 -0.203125 11.71875 0 12.359375 0 L 13.046875 0 C 13.6875 0 13.859375 -0.21875 13.859375 -0.828125 Z M 13.859375 -0.828125 "/>
</g>
<g id="glyph-4-15">
<path d="M 5.25 -3.9375 C 5.25 -4.5625 4.625 -4.5625 4.421875 -4.5625 L 1.03125 -4.5625 C 0.828125 -4.5625 0.203125 -4.5625 0.203125 -3.9375 C 0.203125 -3.3125 0.828125 -3.3125 1.03125 -3.3125 L 4.421875 -3.3125 C 4.625 -3.3125 5.25 -3.3125 5.25 -3.9375 Z M 5.25 -3.9375 "/>
</g>
<g id="glyph-4-16">
<path d="M 8.140625 -7.390625 C 8.140625 -7.875 7.703125 -7.875 7.453125 -7.875 L 7.09375 -7.875 C 6.359375 -7.875 6.171875 -7.625 6.015625 -7.140625 L 4.3125 -1.9375 L 2.609375 -7.140625 C 2.5 -7.5 2.375 -7.875 1.546875 -7.875 L 1.140625 -7.875 C 0.875 -7.875 0.453125 -7.875 0.453125 -7.390625 C 0.453125 -7.34375 0.453125 -7.3125 0.53125 -7.078125 L 2.578125 -0.71875 C 2.828125 0 3.359375 0 3.671875 0 L 4.921875 0 C 5.234375 0 5.765625 0 6 -0.71875 L 8.046875 -7.078125 C 8.140625 -7.3125 8.140625 -7.34375 8.140625 -7.390625 Z M 8.140625 -7.390625 "/>
</g>
<g id="glyph-4-17">
<path d="M 6.125 -6.796875 L 6.125 -7.609375 C 6.125 -7.953125 6.125 -8.0625 5.8125 -8.0625 C 5.328125 -8.0625 4.078125 -7.890625 3.265625 -6.03125 L 3.25 -6.03125 L 3.25 -7.15625 C 3.25 -7.703125 3.125 -7.984375 2.421875 -7.984375 L 1.875 -7.984375 C 1.25 -7.984375 1.046875 -7.796875 1.046875 -7.15625 L 1.046875 -0.828125 C 1.046875 -0.203125 1.234375 0 1.875 0 L 2.515625 0 C 3.171875 0 3.34375 -0.21875 3.34375 -0.828125 L 3.34375 -3.953125 C 3.34375 -5.59375 4.703125 -6.265625 5.78125 -6.328125 C 6.09375 -6.34375 6.125 -6.34375 6.125 -6.796875 Z M 6.125 -6.796875 "/>
</g>
<g id="glyph-4-18">
<path d="M 8.90625 -3.875 C 8.90625 -6.6875 7.53125 -8.171875 4.734375 -8.171875 C 1.859375 -8.171875 0.53125 -6.640625 0.53125 -3.875 C 0.53125 -1.0625 2.015625 0.1875 4.71875 0.1875 C 7.421875 0.1875 8.90625 -1.046875 8.90625 -3.875 Z M 6.578125 -4.078125 C 6.578125 -2.71875 6.578125 -1.15625 4.734375 -1.15625 C 2.875 -1.15625 2.875 -2.703125 2.875 -4.078125 C 2.875 -5.40625 2.875 -6.9375 4.71875 -6.9375 C 6.578125 -6.9375 6.578125 -5.421875 6.578125 -4.078125 Z M 6.578125 -4.078125 "/>
</g>
<g id="glyph-4-19">
<path d="M 12.375 -7.390625 C 12.3125 -7.875 12 -7.875 11.46875 -7.875 C 10.671875 -7.875 10.453125 -7.828125 10.21875 -6.9375 L 8.828125 -1.9375 L 7.359375 -7.109375 C 7.265625 -7.484375 7.140625 -7.875 6.34375 -7.875 C 6.09375 -7.875 5.6875 -7.875 5.453125 -7.484375 C 5.296875 -7.21875 4.546875 -4.25 3.9375 -2.234375 L 2.5625 -7.109375 C 2.390625 -7.6875 2.203125 -7.875 1.5 -7.875 L 1.15625 -7.875 C 0.828125 -7.875 0.46875 -7.875 0.40625 -7.390625 L 2.234375 -0.796875 C 2.453125 0 2.90625 0 3.34375 0 L 3.8125 0 C 4.625 0 4.765625 -0.265625 4.953125 -0.953125 C 5.34375 -2.375 5.96875 -4.546875 6.03125 -5.4375 L 6.0625 -5.453125 C 6.15625 -4.46875 6.921875 -1.75 7.140625 -0.953125 C 7.328125 -0.328125 7.421875 0 8.28125 0 L 9.4375 0 C 10.1875 0 10.359375 -0.203125 10.53125 -0.796875 Z M 12.375 -7.390625 "/>
</g>
<g id="glyph-5-0">
<path d="M 8.21875 -6.5 C 8.21875 -7.25 7.5 -7.515625 6.640625 -7.515625 C 5.484375 -7.515625 4.5 -7 3.71875 -6.03125 L 3.71875 -6.703125 C 3.71875 -7.25 3.609375 -7.421875 3.03125 -7.421875 L 1.296875 -7.421875 C 1.046875 -7.421875 0.609375 -7.421875 0.609375 -6.921875 C 0.609375 -6.421875 1.046875 -6.421875 1.296875 -6.421875 L 2.59375 -6.421875 L 2.59375 -1 L 1.296875 -1 C 1.046875 -1 0.609375 -1 0.609375 -0.5 C 0.609375 0 1.046875 0 1.296875 0 L 5.515625 0 C 5.765625 0 6.203125 0 6.203125 -0.5 C 6.203125 -1 5.765625 -1 5.515625 -1 L 3.71875 -1 L 3.71875 -3.25 C 3.71875 -5.296875 5.15625 -6.515625 6.625 -6.515625 C 6.703125 -6.515625 6.8125 -6.515625 6.90625 -6.5 C 6.953125 -5.890625 7.4375 -5.828125 7.546875 -5.828125 C 7.953125 -5.828125 8.21875 -6.125 8.21875 -6.5 Z M 8.21875 -6.5 "/>
</g>
<g id="glyph-5-1">
<path d="M 7.71875 -2.140625 C 7.71875 -3.921875 5.59375 -4.28125 4.765625 -4.40625 C 3.25 -4.65625 2.21875 -4.828125 2.21875 -5.5625 C 2.21875 -6.015625 2.75 -6.578125 4.375 -6.578125 C 6 -6.578125 6.078125 -5.796875 6.109375 -5.34375 C 6.140625 -5 6.453125 -4.953125 6.65625 -4.953125 C 7.21875 -4.953125 7.21875 -5.265625 7.21875 -5.609375 L 7.21875 -6.921875 C 7.21875 -7.1875 7.21875 -7.5625 6.75 -7.5625 C 6.328125 -7.5625 6.234375 -7.15625 6.234375 -7.15625 C 5.546875 -7.5625 4.75 -7.5625 4.40625 -7.5625 C 1.59375 -7.5625 1.21875 -6.140625 1.21875 -5.5625 C 1.21875 -4.84375 1.640625 -4.375 2.21875 -4.046875 C 2.765625 -3.734375 3.265625 -3.640625 4.671875 -3.421875 C 5.34375 -3.296875 6.71875 -3.078125 6.71875 -2.140625 C 6.71875 -1.5 6.140625 -0.890625 4.546875 -0.890625 C 3.4375 -0.890625 2.71875 -1.328125 2.359375 -2.5625 C 2.265625 -2.796875 2.21875 -3 1.796875 -3 C 1.21875 -3 1.21875 -2.671875 1.21875 -2.328125 L 1.21875 -0.546875 C 1.21875 -0.28125 1.21875 0.109375 1.703125 0.109375 C 1.90625 0.109375 2.0625 0.109375 2.328125 -0.609375 C 3.109375 0.046875 4.015625 0.109375 4.546875 0.109375 C 7.71875 0.109375 7.71875 -1.96875 7.71875 -2.140625 Z M 7.71875 -2.140625 "/>
</g>
<g id="glyph-5-2">
<path d="M 7.859375 -11.375 C 7.859375 -11.734375 7.5625 -11.9375 7.3125 -11.9375 C 6.953125 -11.9375 6.8125 -11.640625 6.71875 -11.46875 L 1.078125 0.5 C 1.03125 0.625 0.984375 0.734375 0.984375 0.859375 C 0.984375 1.21875 1.265625 1.421875 1.53125 1.421875 C 1.890625 1.421875 2.03125 1.15625 2.109375 0.96875 L 7.765625 -11.015625 C 7.8125 -11.125 7.859375 -11.25 7.859375 -11.375 Z M 7.859375 -11.375 "/>
</g>
<g id="glyph-5-3">
<path d="M 8.578125 -0.5 C 8.578125 -1 8.140625 -1 7.890625 -1 L 7.1875 -1 L 7.1875 -5.046875 C 7.1875 -6.71875 6.40625 -7.515625 4.984375 -7.515625 C 3.8125 -7.515625 3.0625 -6.859375 2.765625 -6.53125 C 2.765625 -7.171875 2.765625 -7.421875 2.078125 -7.421875 L 0.953125 -7.421875 C 0.703125 -7.421875 0.265625 -7.421875 0.265625 -6.921875 C 0.265625 -6.421875 0.703125 -6.421875 0.953125 -6.421875 L 1.65625 -6.421875 L 1.65625 -1 L 0.953125 -1 C 0.703125 -1 0.265625 -1 0.265625 -0.5 C 0.265625 0 0.703125 0 0.953125 0 L 3.46875 0 C 3.71875 0 4.15625 0 4.15625 -0.5 C 4.15625 -1 3.71875 -1 3.46875 -1 L 2.765625 -1 L 2.765625 -4.109375 C 2.765625 -5.78125 3.9375 -6.515625 4.875 -6.515625 C 5.859375 -6.515625 6.078125 -5.953125 6.078125 -4.96875 L 6.078125 -1 L 5.375 -1 C 5.125 -1 4.671875 -1 4.671875 -0.5 C 4.671875 0 5.125 0 5.375 0 L 7.890625 0 C 8.140625 0 8.578125 0 8.578125 -0.5 Z M 8.578125 -0.5 "/>
</g>
<g id="glyph-5-4">
<path d="M 8.546875 -0.5 C 8.546875 -1 8.109375 -1 7.859375 -1 L 7.390625 -1 L 4.84375 -4.390625 L 6.984375 -6.421875 L 7.5 -6.421875 C 7.734375 -6.421875 8.1875 -6.421875 8.1875 -6.921875 C 8.1875 -7.421875 7.734375 -7.421875 7.5 -7.421875 L 4.984375 -7.421875 C 4.75 -7.421875 4.28125 -7.421875 4.28125 -6.921875 C 4.28125 -6.421875 4.75 -6.421875 4.984375 -6.421875 L 5.59375 -6.421875 L 2.796875 -3.765625 L 2.796875 -9.8125 C 2.796875 -10.34375 2.703125 -10.515625 2.109375 -10.515625 L 1.0625 -10.515625 C 0.828125 -10.515625 0.359375 -10.515625 0.359375 -10.015625 C 0.359375 -9.515625 0.828125 -9.515625 1.0625 -9.515625 L 1.84375 -9.515625 L 1.84375 -1 L 1.0625 -1 C 0.828125 -1 0.359375 -1 0.359375 -0.5 C 0.359375 0 0.828125 0 1.0625 0 L 3.578125 0 C 3.8125 0 4.28125 0 4.28125 -0.5 C 4.28125 -1 3.8125 -1 3.578125 -1 L 2.796875 -1 L 2.796875 -2.4375 L 4.140625 -3.71875 L 6.1875 -1 C 5.640625 -1 5.234375 -1 5.234375 -0.5 C 5.234375 0 5.6875 0 5.9375 0 L 7.859375 0 C 8.109375 0 8.546875 0 8.546875 -0.5 Z M 8.546875 -0.5 "/>
</g>
<g id="glyph-5-5">
<path d="M 8.578125 -0.5 C 8.578125 -1 8.140625 -1 7.890625 -1 L 7.1875 -1 L 7.1875 -5.046875 C 7.1875 -6.71875 6.40625 -7.515625 4.984375 -7.515625 C 3.8125 -7.515625 3.0625 -6.859375 2.765625 -6.53125 L 2.765625 -9.8125 C 2.765625 -10.34375 2.671875 -10.515625 2.078125 -10.515625 L 0.953125 -10.515625 C 0.703125 -10.515625 0.265625 -10.515625 0.265625 -10.015625 C 0.265625 -9.515625 0.703125 -9.515625 0.953125 -9.515625 L 1.65625 -9.515625 L 1.65625 -1 L 0.953125 -1 C 0.703125 -1 0.265625 -1 0.265625 -0.5 C 0.265625 0 0.703125 0 0.953125 0 L 3.46875 0 C 3.71875 0 4.15625 0 4.15625 -0.5 C 4.15625 -1 3.71875 -1 3.46875 -1 L 2.765625 -1 L 2.765625 -4.109375 C 2.765625 -5.78125 3.9375 -6.515625 4.875 -6.515625 C 5.859375 -6.515625 6.078125 -5.953125 6.078125 -4.96875 L 6.078125 -1 L 5.375 -1 C 5.125 -1 4.671875 -1 4.671875 -0.5 C 4.671875 0 5.125 0 5.375 0 L 7.890625 0 C 8.140625 0 8.578125 0 8.578125 -0.5 Z M 8.578125 -0.5 "/>
</g>
</g>
<clipPath id="clip-0">
<path clip-rule="nonzero" d="M 658 137 L 824.328125 137 L 824.328125 198 L 658 198 Z M 658 137 "/>
</clipPath>
</defs>
<path fill-rule="nonzero" fill="rgb(79.998779%, 100%, 79.998779%)" fill-opacity="1" stroke-width="0.89664" stroke-linecap="butt" stroke-linejoin="miter" stroke="rgb(0%, 54.998779%, 0%)" stroke-opacity="1" stroke-miterlimit="10" d="M 339.413943 -51.933389 L 339.413943 -22.997818 C 339.413943 -21.343798 340.751235 -20.006506 342.401345 -20.006506 L 479.055444 -20.006506 C 480.705553 -20.006506 482.046756 -21.343798 482.046756 -22.997818 L 482.046756 -51.933389 C 482.046756 -53.583499 480.705553 -54.920791 479.055444 -54.920791 L 342.401345 -54.920791 C 340.751235 -54.920791 339.413943 -53.583499 339.413943 -51.933389 Z M 339.413943 -51.933389 " transform="matrix(0.998987, 0, 0, -0.998987, 96.16046, 133.076267)"/>
<path fill-rule="nonzero" fill="rgb(100%, 87.5%, 75%)" fill-opacity="1" stroke-width="0.89664" stroke-linecap="butt" stroke-linejoin="miter" stroke="rgb(75%, 37.5%, 0%)" stroke-opacity="1" stroke-miterlimit="10" d="M 572.755861 -51.933389 L 572.755861 -22.997818 C 572.755861 -21.343798 574.093153 -20.006506 575.743263 -20.006506 L 712.397362 -20.006506 C 714.047471 -20.006506 715.384764 -21.343798 715.384764 -22.997818 L 715.384764 -51.933389 C 715.384764 -53.583499 714.047471 -54.920791 712.397362 -54.920791 L 575.743263 -54.920791 C 574.093153 -54.920791 572.755861 -53.583499 572.755861 -51.933389 Z M 572.755861 -51.933389 " transform="matrix(0.998987, 0, 0, -0.998987, 96.16046, 133.076267)"/>
<path fill-rule="nonzero" fill="rgb(79.998779%, 100%, 79.998779%)" fill-opacity="1" stroke-width="0.89664" stroke-linecap="butt" stroke-linejoin="miter" stroke="rgb(0%, 54.998779%, 0%)" stroke-opacity="1" stroke-miterlimit="10" d="M 342.530382 -48.81304 L 342.530382 -19.877469 C 342.530382 -18.227359 343.871585 -16.890067 345.521694 -16.890067 L 482.175793 -16.890067 C 483.825903 -16.890067 485.163195 -18.227359 485.163195 -19.877469 L 485.163195 -48.81304 C 485.163195 -50.463149 483.825903 -51.800442 482.175793 -51.800442 L 345.521694 -51.800442 C 343.871585 -51.800442 342.530382 -50.463149 342.530382 -48.81304 Z M 342.530382 -48.81304 " transform="matrix(0.998987, 0, 0, -0.998987, 96.16046, 133.076267)"/>
<path fill-rule="nonzero" fill="rgb(100%, 87.5%, 75%)" fill-opacity="1" d="M 671.449219 181.839844 L 671.449219 152.933594 C 671.449219 151.285156 672.785156 149.949219 674.433594 149.949219 L 810.949219 149.949219 C 812.597656 149.949219 813.9375 151.285156 813.9375 152.933594 L 813.9375 181.839844 C 813.9375 183.488281 812.597656 184.824219 810.949219 184.824219 L 674.433594 184.824219 C 672.785156 184.824219 671.449219 183.488281 671.449219 181.839844 Z M 671.449219 181.839844 "/>
<g clip-path="url(#clip-0)">
<path fill="none" stroke-width="0.89664" stroke-linecap="butt" stroke-linejoin="miter" stroke="rgb(75%, 37.5%, 0%)" stroke-opacity="1" stroke-miterlimit="10" d="M 575.8723 -48.81304 L 575.8723 -19.877469 C 575.8723 -18.227359 577.209593 -16.890067 578.859702 -16.890067 L 715.513801 -16.890067 C 717.163911 -16.890067 718.505113 -18.227359 718.505113 -19.877469 L 718.505113 -48.81304 C 718.505113 -50.463149 717.163911 -51.800442 715.513801 -51.800442 L 578.859702 -51.800442 C 577.209593 -51.800442 575.8723 -50.463149 575.8723 -48.81304 Z M 575.8723 -48.81304 " transform="matrix(0.998987, 0, 0, -0.998987, 96.16046, 133.076267)"/>
</g>
<path fill="none" stroke-width="0.99628" stroke-linecap="butt" stroke-linejoin="miter" stroke="rgb(43.136597%, 46.273804%, 50.585938%)" stroke-opacity="1" stroke-dasharray="0.99628 1.99255" stroke-miterlimit="10" d="M 305.11356 73.252057 L 305.11356 -167.695224 " transform="matrix(0.998987, 0, 0, -0.998987, 96.16046, 133.076267)"/>
<path fill="none" stroke-width="0.69739" stroke-linecap="butt" stroke-linejoin="miter" stroke="rgb(43.136597%, 46.273804%, 50.585938%)" stroke-opacity="1" stroke-miterlimit="10" d="M -84.550824 102.046861 L 303.721525 102.046861 " transform="matrix(0.998987, 0, 0, -0.998987, 96.16046, 133.076267)"/>
<path fill="none" stroke-width="0.69739" stroke-linecap="round" stroke-linejoin="round" stroke="rgb(43.136597%, 46.273804%, 50.585938%)" stroke-opacity="1" stroke-miterlimit="10" d="M -2.430639 2.930568 C -1.984874 1.170973 -0.995591 0.342008 0.00151352 0.00181946 C -0.995591 -0.342279 -1.984874 -1.171244 -2.430639 -2.93084 " transform="matrix(-0.998987, 0, 0, 0.998987, 11.345262, 31.130995)"/>
<path fill="none" stroke-width="0.69739" stroke-linecap="butt" stroke-linejoin="miter" stroke="rgb(43.136597%, 46.273804%, 50.585938%)" stroke-opacity="1" stroke-miterlimit="10" d="M 0.00016131 2.887556 L 0.00016131 -2.887827 " transform="matrix(-0.998987, 0, 0, 0.998987, 10.648599, 31.130995)"/>
<path fill="none" stroke-width="0.69739" stroke-linecap="round" stroke-linejoin="round" stroke="rgb(43.136597%, 46.273804%, 50.585938%)" stroke-opacity="1" stroke-miterlimit="10" d="M -2.430988 2.93084 C -1.985224 1.171244 -0.99594 0.342279 0.00116377 -0.00181946 C -0.99594 -0.342008 -1.985224 -1.170973 -2.430988 -2.930568 " transform="matrix(0.998987, 0, 0, -0.998987, 399.920712, 31.130995)"/>
<path fill="none" stroke-width="0.69739" stroke-linecap="butt" stroke-linejoin="miter" stroke="rgb(43.136597%, 46.273804%, 50.585938%)" stroke-opacity="1" stroke-miterlimit="10" d="M -0.000198441 2.887827 L -0.000198441 -2.887556 " transform="matrix(0.998987, 0, 0, -0.998987, 400.617386, 31.130995)"/>
<path fill="none" stroke-width="0.69739" stroke-linecap="butt" stroke-linejoin="miter" stroke="rgb(43.136597%, 46.273804%, 50.585938%)" stroke-opacity="1" stroke-miterlimit="10" d="M 306.509506 102.046861 L 710.872379 102.046861 " transform="matrix(0.998987, 0, 0, -0.998987, 96.16046, 133.076267)"/>
<path fill="none" stroke-width="0.69739" stroke-linecap="round" stroke-linejoin="round" stroke="rgb(43.136597%, 46.273804%, 50.585938%)" stroke-opacity="1" stroke-miterlimit="10" d="M -2.429249 2.930568 C -1.987395 1.170973 -0.998111 0.342008 -0.00100734 0.00181946 C -0.998111 -0.342279 -1.987395 -1.171244 -2.429249 -2.93084 " transform="matrix(-0.998987, 0, 0, 0.998987, 402.010712, 31.130995)"/>
<path fill="none" stroke-width="0.69739" stroke-linecap="butt" stroke-linejoin="miter" stroke="rgb(43.136597%, 46.273804%, 50.585938%)" stroke-opacity="1" stroke-miterlimit="10" d="M 0.00155065 2.887556 L 0.00155065 -2.887827 " transform="matrix(-0.998987, 0, 0, 0.998987, 401.314049, 31.130995)"/>
<path fill="none" stroke-width="0.69739" stroke-linecap="round" stroke-linejoin="round" stroke="rgb(43.136597%, 46.273804%, 50.585938%)" stroke-opacity="1" stroke-miterlimit="10" d="M -2.429034 2.93084 C -1.98718 1.171244 -0.997896 0.342279 -0.000792018 -0.00181946 C -0.997896 -0.342008 -1.98718 -1.170973 -2.429034 -2.930568 " transform="matrix(0.998987, 0, 0, -0.998987, 806.660947, 31.130995)"/>
<path fill="none" stroke-width="0.69739" stroke-linecap="butt" stroke-linejoin="miter" stroke="rgb(43.136597%, 46.273804%, 50.585938%)" stroke-opacity="1" stroke-miterlimit="10" d="M 0.00176598 2.887827 L 0.00176598 -2.887556 " transform="matrix(0.998987, 0, 0, -0.998987, 807.357611, 31.130995)"/>
<g fill="rgb(43.136597%, 46.273804%, 50.585938%)" fill-opacity="1">
<use xlink:href="#glyph-0-0" x="173.789717" y="21.798142"/>
<use xlink:href="#glyph-0-1" x="181.737841" y="21.798142"/>
<use xlink:href="#glyph-0-2" x="185.711305" y="21.798142"/>
<use xlink:href="#glyph-0-3" x="188.461798" y="21.798142"/>
<use xlink:href="#glyph-0-3" x="192.684873" y="21.798142"/>
<use xlink:href="#glyph-0-4" x="196.907948" y="21.798142"/>
<use xlink:href="#glyph-0-5" x="202.105579" y="21.798142"/>
</g>
<g fill="rgb(43.136597%, 46.273804%, 50.585938%)" fill-opacity="1">
<use xlink:href="#glyph-0-2" x="211.998037" y="21.798142"/>
<use xlink:href="#glyph-0-5" x="214.748529" y="21.798142"/>
</g>
<g fill="rgb(43.136597%, 46.273804%, 50.585938%)" fill-opacity="1">
<use xlink:href="#glyph-0-6" x="224.65293" y="21.798142"/>
<use xlink:href="#glyph-0-2" x="230.500265" y="21.798142"/>
<use xlink:href="#glyph-0-3" x="233.250757" y="21.798142"/>
</g>
<g fill="rgb(43.136597%, 46.273804%, 50.585938%)" fill-opacity="1">
<use xlink:href="#glyph-0-7" x="544.114081" y="24.120786"/>
<use xlink:href="#glyph-0-1" x="549.311711" y="24.120786"/>
<use xlink:href="#glyph-0-4" x="553.285176" y="24.120786"/>
<use xlink:href="#glyph-0-8" x="558.482807" y="24.120786"/>
<use xlink:href="#glyph-0-3" x="564.080531" y="24.120786"/>
<use xlink:href="#glyph-0-4" x="568.303606" y="24.120786"/>
<use xlink:href="#glyph-0-9" x="573.501237" y="24.120786"/>
</g>
<g fill="rgb(43.136597%, 46.273804%, 50.585938%)" fill-opacity="1">
<use xlink:href="#glyph-0-8" x="583.393695" y="24.120786"/>
<use xlink:href="#glyph-0-3" x="588.991419" y="24.120786"/>
</g>
<g fill="rgb(43.136597%, 46.273804%, 50.585938%)" fill-opacity="1">
<use xlink:href="#glyph-0-1" x="597.119883" y="24.120786"/>
<use xlink:href="#glyph-0-4" x="601.093348" y="24.120786"/>
<use xlink:href="#glyph-0-7" x="606.290978" y="24.120786"/>
<use xlink:href="#glyph-0-10" x="611.488609" y="24.120786"/>
<use xlink:href="#glyph-0-5" x="617.335944" y="24.120786"/>
<use xlink:href="#glyph-0-7" x="623.334956" y="24.120786"/>
<use xlink:href="#glyph-0-2" x="628.532587" y="24.120786"/>
<use xlink:href="#glyph-0-11" x="631.283079" y="24.120786"/>
<use xlink:href="#glyph-0-4" x="634.033572" y="24.120786"/>
</g>
<g fill="rgb(43.136597%, 46.273804%, 50.585938%)" fill-opacity="1">
<use xlink:href="#glyph-0-3" x="643.124649" y="24.120786"/>
<use xlink:href="#glyph-0-2" x="647.347724" y="24.120786"/>
<use xlink:href="#glyph-0-12" x="650.098216" y="24.120786"/>
<use xlink:href="#glyph-0-4" x="659.345748" y="24.120786"/>
</g>
<path fill="none" stroke-width="0.3985" stroke-linecap="butt" stroke-linejoin="miter" stroke="rgb(43.136597%, 46.273804%, 50.585938%)" stroke-opacity="1" stroke-dasharray="2.98883 2.98883" stroke-miterlimit="10" d="M 500.025912 77.881749 L 321.434787 77.881749 C 318.681997 77.881749 316.453176 75.652928 316.453176 72.900138 L 316.453176 -72.899947 C 316.453176 -75.652737 318.681997 -77.881558 321.434787 -77.881558 L 500.025912 -77.881558 C 502.774791 -77.881558 505.007523 -75.652737 505.007523 -72.899947 L 505.007523 72.900138 C 505.007523 75.652928 502.774791 77.881749 500.025912 77.881749 Z M 500.025912 77.881749 " transform="matrix(0.998987, 0, 0, -0.998987, 96.16046, 133.076267)"/>
<g fill="rgb(43.136597%, 46.273804%, 50.585938%)" fill-opacity="1">
<use xlink:href="#glyph-1-0" x="423.348578" y="71.830392"/>
<use xlink:href="#glyph-1-1" x="428.324831" y="71.830392"/>
<use xlink:href="#glyph-1-2" x="432.748719" y="71.830392"/>
<use xlink:href="#glyph-1-1" x="437.891178" y="71.830392"/>
<use xlink:href="#glyph-1-3" x="442.315067" y="71.830392"/>
<use xlink:href="#glyph-1-4" x="445.715838" y="71.830392"/>
<use xlink:href="#glyph-1-5" x="450.499011" y="71.830392"/>
<use xlink:href="#glyph-1-1" x="454.092861" y="71.830392"/>
<use xlink:href="#glyph-1-6" x="458.516749" y="71.830392"/>
</g>
<g fill="rgb(43.136597%, 46.273804%, 50.585938%)" fill-opacity="1">
<use xlink:href="#glyph-1-7" x="466.973392" y="71.830392"/>
</g>
<g fill="rgb(43.136597%, 46.273804%, 50.585938%)" fill-opacity="1">
<use xlink:href="#glyph-1-8" x="471.837181" y="71.830392"/>
</g>
<g fill="rgb(43.136597%, 46.273804%, 50.585938%)" fill-opacity="1">
<use xlink:href="#glyph-2-0" x="479.869848" y="71.830392"/>
<use xlink:href="#glyph-2-1" x="485.094913" y="71.830392"/>
<use xlink:href="#glyph-2-1" x="490.319978" y="71.830392"/>
<use xlink:href="#glyph-2-2" x="495.545043" y="71.830392"/>
<use xlink:href="#glyph-2-3" x="500.770108" y="71.830392"/>
<use xlink:href="#glyph-2-4" x="505.995173" y="71.830392"/>
<use xlink:href="#glyph-2-5" x="511.220238" y="71.830392"/>
<use xlink:href="#glyph-2-6" x="516.445303" y="71.830392"/>
<use xlink:href="#glyph-2-0" x="521.670368" y="71.830392"/>
<use xlink:href="#glyph-2-7" x="526.895433" y="71.830392"/>
<use xlink:href="#glyph-2-8" x="532.120498" y="71.830392"/>
<use xlink:href="#glyph-2-9" x="537.345563" y="71.830392"/>
</g>
<g fill="rgb(43.136597%, 46.273804%, 50.585938%)" fill-opacity="1">
<use xlink:href="#glyph-0-6" x="405.721458" y="314.863872"/>
<use xlink:href="#glyph-0-4" x="411.568793" y="314.863872"/>
<use xlink:href="#glyph-0-5" x="416.766424" y="314.863872"/>
<use xlink:href="#glyph-0-4" x="422.765436" y="314.863872"/>
<use xlink:href="#glyph-0-1" x="427.963067" y="314.863872"/>
<use xlink:href="#glyph-0-8" x="431.936531" y="314.863872"/>
<use xlink:href="#glyph-0-3" x="437.534256" y="314.863872"/>
<use xlink:href="#glyph-0-4" x="441.757331" y="314.863872"/>
<use xlink:href="#glyph-0-9" x="446.954961" y="314.863872"/>
</g>
<g fill="rgb(43.136597%, 46.273804%, 50.585938%)" fill-opacity="1">
<use xlink:href="#glyph-0-13" x="456.847419" y="314.863872"/>
</g>
<g fill="rgb(43.136597%, 46.273804%, 50.585938%)" fill-opacity="1">
<use xlink:href="#glyph-0-14" x="462.523968" y="314.863872"/>
</g>
<g fill="rgb(43.136597%, 46.273804%, 50.585938%)" fill-opacity="1">
<use xlink:href="#glyph-3-0" x="471.921982" y="314.863872"/>
<use xlink:href="#glyph-3-1" x="478.067894" y="314.863872"/>
<use xlink:href="#glyph-3-1" x="484.213806" y="314.863872"/>
<use xlink:href="#glyph-3-2" x="490.359717" y="314.863872"/>
<use xlink:href="#glyph-3-3" x="496.505629" y="314.863872"/>
<use xlink:href="#glyph-3-4" x="502.651541" y="314.863872"/>
<use xlink:href="#glyph-3-5" x="508.797453" y="314.863872"/>
<use xlink:href="#glyph-3-6" x="514.943365" y="314.863872"/>
<use xlink:href="#glyph-3-4" x="521.089277" y="314.863872"/>
<use xlink:href="#glyph-3-7" x="527.235188" y="314.863872"/>
<use xlink:href="#glyph-3-8" x="533.3811" y="314.863872"/>
<use xlink:href="#glyph-3-0" x="539.527012" y="314.863872"/>
<use xlink:href="#glyph-3-9" x="545.672924" y="314.863872"/>
<use xlink:href="#glyph-3-3" x="551.818836" y="314.863872"/>
<use xlink:href="#glyph-3-2" x="557.964748" y="314.863872"/>
<use xlink:href="#glyph-3-4" x="564.11066" y="314.863872"/>
<use xlink:href="#glyph-3-10" x="570.256571" y="314.863872"/>
<use xlink:href="#glyph-3-7" x="576.402483" y="314.863872"/>
<use xlink:href="#glyph-3-4" x="582.548395" y="314.863872"/>
<use xlink:href="#glyph-3-6" x="588.694307" y="314.863872"/>
<use xlink:href="#glyph-3-2" x="594.840219" y="314.863872"/>
</g>
<path fill-rule="nonzero" fill="rgb(89.99939%, 89.99939%, 89.99939%)" fill-opacity="1" stroke-width="0.89664" stroke-linecap="butt" stroke-linejoin="miter" stroke="rgb(34.999084%, 34.999084%, 34.999084%)" stroke-opacity="1" stroke-miterlimit="10" d="M 82.509085 17.457238 L -82.509694 17.457238 C -84.159803 17.457238 -85.497096 16.119946 -85.497096 14.469836 L -85.497096 -14.469645 C -85.497096 -16.119755 -84.159803 -17.457047 -82.509694 -17.457047 L 82.509085 -17.457047 C 84.159195 -17.457047 85.500398 -16.119755 85.500398 -14.469645 L 85.500398 14.469836 C 85.500398 16.119946 84.159195 17.457238 82.509085 17.457238 Z M 82.509085 17.457238 " transform="matrix(0.998987, 0, 0, -0.998987, 96.16046, 133.076267)"/>
<g fill="rgb(0%, 0%, 0%)" fill-opacity="1">
<use xlink:href="#glyph-4-0" x="19.706011" y="137.260023"/>
<use xlink:href="#glyph-4-1" x="24.100089" y="137.260023"/>
<use xlink:href="#glyph-4-2" x="33.749862" y="137.260023"/>
<use xlink:href="#glyph-4-3" x="43.399634" y="137.260023"/>
<use xlink:href="#glyph-4-4" x="53.049407" y="137.260023"/>
<use xlink:href="#glyph-4-5" x="60.000821" y="137.260023"/>
<use xlink:href="#glyph-4-6" x="67.253198" y="137.260023"/>
<use xlink:href="#glyph-4-7" x="76.712074" y="137.260023"/>
<use xlink:href="#glyph-4-8" x="86.361847" y="137.260023"/>
<use xlink:href="#glyph-4-9" x="95.151722" y="137.260023"/>
<use xlink:href="#glyph-4-10" x="100.931954" y="137.260023"/>
<use xlink:href="#glyph-4-3" x="109.960881" y="137.260023"/>
<use xlink:href="#glyph-4-11" x="119.610654" y="137.260023"/>
<use xlink:href="#glyph-4-4" x="124.004731" y="137.260023"/>
<use xlink:href="#glyph-4-12" x="130.956145" y="137.260023"/>
<use xlink:href="#glyph-4-13" x="136.21012" y="137.260023"/>
</g>
<g fill="rgb(0%, 0%, 0%)" fill-opacity="1">
<use xlink:href="#glyph-4-10" x="144.275961" y="137.260023"/>
<use xlink:href="#glyph-4-14" x="153.304888" y="137.260023"/>
<use xlink:href="#glyph-4-11" x="168.210356" y="137.260023"/>
</g>
<path fill-rule="nonzero" fill="rgb(81.999207%, 81.999207%, 100%)" fill-opacity="1" stroke-width="0.89664" stroke-linecap="butt" stroke-linejoin="miter" stroke="rgb(0%, 0%, 59.999084%)" stroke-opacity="1" stroke-miterlimit="10" d="M 270.496451 17.007564 L 134.737791 17.007564 C 133.087681 17.007564 131.750389 15.670271 131.750389 14.020162 L 131.750389 -14.019971 C 131.750389 -15.67008 133.087681 -17.007373 134.737791 -17.007373 L 270.496451 -17.007373 C 272.146561 -17.007373 273.483853 -15.67008 273.483853 -14.019971 L 273.483853 14.020162 C 273.483853 15.670271 272.146561 17.007564 270.496451 17.007564 Z M 270.496451 17.007564 " transform="matrix(0.998987, 0, 0, -0.998987, 96.16046, 133.076267)"/>
<g fill="rgb(0%, 0%, 0%)" fill-opacity="1">
<use xlink:href="#glyph-5-0" x="237.229368" y="137.375906"/>
<use xlink:href="#glyph-5-1" x="246.079435" y="137.375906"/>
<use xlink:href="#glyph-5-2" x="254.929503" y="137.375906"/>
</g>
<g fill="rgb(0%, 0%, 0%)" fill-opacity="1">
<use xlink:href="#glyph-4-10" x="263.779571" y="137.375906"/>
<use xlink:href="#glyph-4-2" x="272.808498" y="137.375906"/>
<use xlink:href="#glyph-4-2" x="282.45827" y="137.375906"/>
<use xlink:href="#glyph-4-5" x="292.108043" y="137.375906"/>
<use xlink:href="#glyph-4-15" x="299.360421" y="137.375906"/>
<use xlink:href="#glyph-4-7" x="305.666911" y="137.375906"/>
<use xlink:href="#glyph-4-8" x="315.316684" y="137.375906"/>
<use xlink:href="#glyph-4-9" x="324.106559" y="137.375906"/>
<use xlink:href="#glyph-4-10" x="329.886792" y="137.375906"/>
<use xlink:href="#glyph-4-3" x="338.915718" y="137.375906"/>
<use xlink:href="#glyph-4-11" x="348.565491" y="137.375906"/>
<use xlink:href="#glyph-4-4" x="352.959568" y="137.375906"/>
</g>
<path fill-rule="nonzero" fill="rgb(79.998779%, 100%, 79.998779%)" fill-opacity="1" stroke-width="0.89664" stroke-linecap="butt" stroke-linejoin="miter" stroke="rgb(0%, 54.998779%, 0%)" stroke-opacity="1" stroke-miterlimit="10" d="M 475.48933 57.591657 L 339.73458 57.591657 C 338.08056 57.591657 336.743268 56.250454 336.743268 54.600345 L 336.743268 26.564123 C 336.743268 24.914013 338.08056 23.57281 339.73458 23.57281 L 475.48933 23.57281 C 477.13944 23.57281 478.476732 24.914013 478.476732 26.564123 L 478.476732 54.600345 C 478.476732 56.250454 477.13944 57.591657 475.48933 57.591657 Z M 475.48933 57.591657 " transform="matrix(0.998987, 0, 0, -0.998987, 96.16046, 133.076267)"/>
<g fill="rgb(0%, 0%, 0%)" fill-opacity="1">
<use xlink:href="#glyph-5-3" x="462.957401" y="97.793057"/>
<use xlink:href="#glyph-5-1" x="471.807469" y="97.793057"/>
<use xlink:href="#glyph-5-2" x="480.657537" y="97.793057"/>
</g>
<g fill="rgb(0%, 0%, 0%)" fill-opacity="1">
<use xlink:href="#glyph-4-7" x="489.507605" y="97.793057"/>
<use xlink:href="#glyph-4-8" x="499.157378" y="97.793057"/>
<use xlink:href="#glyph-4-9" x="507.947253" y="97.793057"/>
<use xlink:href="#glyph-4-10" x="513.727485" y="97.793057"/>
<use xlink:href="#glyph-4-3" x="522.756412" y="97.793057"/>
<use xlink:href="#glyph-4-11" x="532.406185" y="97.793057"/>
<use xlink:href="#glyph-4-4" x="536.800262" y="97.793057"/>
</g>
<path fill-rule="nonzero" fill="rgb(79.998779%, 100%, 79.998779%)" fill-opacity="1" stroke-width="0.89664" stroke-linecap="butt" stroke-linejoin="miter" stroke="rgb(0%, 54.998779%, 0%)" stroke-opacity="1" stroke-miterlimit="10" d="M 475.48933 -23.572619 L 339.73458 -23.572619 C 338.08056 -23.572619 336.743268 -24.913822 336.743268 -26.563932 L 336.743268 -54.600154 C 336.743268 -56.250263 338.08056 -57.591466 339.73458 -57.591466 L 475.48933 -57.591466 C 477.13944 -57.591466 478.476732 -56.250263 478.476732 -54.600154 L 478.476732 -26.563932 C 478.476732 -24.913822 477.13944 -23.572619 475.48933 -23.572619 Z M 475.48933 -23.572619 " transform="matrix(0.998987, 0, 0, -0.998987, 96.16046, 133.076267)"/>
<g fill="rgb(0%, 0%, 0%)" fill-opacity="1">
<use xlink:href="#glyph-5-4" x="449.638911" y="178.874812"/>
<use xlink:href="#glyph-5-1" x="458.488979" y="178.874812"/>
<use xlink:href="#glyph-5-2" x="467.339047" y="178.874812"/>
</g>
<g fill="rgb(0%, 0%, 0%)" fill-opacity="1">
<use xlink:href="#glyph-4-1" x="476.189114" y="178.874812"/>
<use xlink:href="#glyph-4-10" x="485.838887" y="178.874812"/>
<use xlink:href="#glyph-4-16" x="494.867814" y="178.874812"/>
<use xlink:href="#glyph-4-0" x="503.466791" y="178.874812"/>
<use xlink:href="#glyph-4-7" x="507.860869" y="178.874812"/>
<use xlink:href="#glyph-4-17" x="517.510642" y="178.874812"/>
<use xlink:href="#glyph-4-18" x="523.911721" y="178.874812"/>
<use xlink:href="#glyph-4-14" x="533.370596" y="178.874812"/>
<use xlink:href="#glyph-4-8" x="548.276064" y="178.874812"/>
</g>
<path fill-rule="nonzero" fill="rgb(100%, 87.5%, 75%)" fill-opacity="1" stroke-width="0.89664" stroke-linecap="butt" stroke-linejoin="miter" stroke="rgb(75%, 37.5%, 0%)" stroke-opacity="1" stroke-miterlimit="10" d="M 708.831248 -23.572619 L 573.072588 -23.572619 C 571.422478 -23.572619 570.085186 -24.913822 570.085186 -26.563932 L 570.085186 -54.600154 C 570.085186 -56.250263 571.422478 -57.591466 573.072588 -57.591466 L 708.831248 -57.591466 C 710.481358 -57.591466 711.81865 -56.250263 711.81865 -54.600154 L 711.81865 -26.563932 C 711.81865 -24.913822 710.481358 -23.572619 708.831248 -23.572619 Z M 708.831248 -23.572619 " transform="matrix(0.998987, 0, 0, -0.998987, 96.16046, 133.076267)"/>
<g fill="rgb(0%, 0%, 0%)" fill-opacity="1">
<use xlink:href="#glyph-5-5" x="682.741465" y="178.874812"/>
<use xlink:href="#glyph-5-0" x="691.591532" y="178.874812"/>
<use xlink:href="#glyph-5-2" x="700.4416" y="178.874812"/>
</g>
<g fill="rgb(0%, 0%, 0%)" fill-opacity="1">
<use xlink:href="#glyph-4-1" x="709.291668" y="178.874812"/>
<use xlink:href="#glyph-4-10" x="718.941441" y="178.874812"/>
<use xlink:href="#glyph-4-16" x="727.970367" y="178.874812"/>
<use xlink:href="#glyph-4-0" x="736.569345" y="178.874812"/>
<use xlink:href="#glyph-4-7" x="740.963423" y="178.874812"/>
<use xlink:href="#glyph-4-17" x="750.613195" y="178.874812"/>
<use xlink:href="#glyph-4-18" x="757.014274" y="178.874812"/>
<use xlink:href="#glyph-4-14" x="766.47315" y="178.874812"/>
<use xlink:href="#glyph-4-8" x="781.378618" y="178.874812"/>
</g>
<path fill-rule="nonzero" fill="rgb(79.998779%, 100%, 79.998779%)" fill-opacity="1" stroke-width="0.89664" stroke-linecap="butt" stroke-linejoin="miter" stroke="rgb(0%, 54.998779%, 0%)" stroke-opacity="1" stroke-miterlimit="10" d="M 476.099323 -126.520688 L 339.124587 -126.520688 C 337.474477 -126.520688 336.133275 -127.857981 336.133275 -129.508091 L 336.133275 -157.548223 C 336.133275 -159.198332 337.474477 -160.535625 339.124587 -160.535625 L 476.099323 -160.535625 C 477.749433 -160.535625 479.086725 -159.198332 479.086725 -157.548223 L 479.086725 -129.508091 C 479.086725 -127.857981 477.749433 -126.520688 476.099323 -126.520688 Z M 476.099323 -126.520688 " transform="matrix(0.998987, 0, 0, -0.998987, 96.16046, 133.076267)"/>
<g fill="rgb(0%, 0%, 0%)" fill-opacity="1">
<use xlink:href="#glyph-5-4" x="440.906768" y="280.75547"/>
<use xlink:href="#glyph-5-1" x="449.756836" y="280.75547"/>
<use xlink:href="#glyph-5-2" x="458.606904" y="280.75547"/>
</g>
<g fill="rgb(0%, 0%, 0%)" fill-opacity="1">
<use xlink:href="#glyph-4-18" x="467.456972" y="280.75547"/>
<use xlink:href="#glyph-4-1" x="476.915847" y="280.75547"/>
<use xlink:href="#glyph-4-8" x="486.56562" y="280.75547"/>
<use xlink:href="#glyph-4-2" x="495.355495" y="280.75547"/>
<use xlink:href="#glyph-4-10" x="505.005268" y="280.75547"/>
<use xlink:href="#glyph-4-5" x="514.034194" y="280.75547"/>
<use xlink:href="#glyph-4-5" x="521.286572" y="280.75547"/>
<use xlink:href="#glyph-4-19" x="528.53895" y="280.75547"/>
</g>
<g fill="rgb(0%, 0%, 0%)" fill-opacity="1">
<use xlink:href="#glyph-4-18" x="540.809691" y="280.75547"/>
</g>
<g fill="rgb(0%, 0%, 0%)" fill-opacity="1">
<use xlink:href="#glyph-4-17" x="549.752628" y="280.75547"/>
<use xlink:href="#glyph-4-7" x="556.153707" y="280.75547"/>
</g>
<path fill="none" stroke-width="0.89664" stroke-linecap="butt" stroke-linejoin="miter" stroke="rgb(43.136597%, 46.273804%, 50.585938%)" stroke-opacity="1" stroke-miterlimit="10" d="M 85.946162 -0.00185968 L 126.694484 -0.00185968 " transform="matrix(0.998987, 0, 0, -0.998987, 96.16046, 133.076267)"/>
<path fill-rule="nonzero" fill="rgb(43.136597%, 46.273804%, 50.585938%)" fill-opacity="1" stroke-width="0.89664" stroke-linecap="butt" stroke-linejoin="miter" stroke="rgb(43.136597%, 46.273804%, 50.585938%)" stroke-opacity="1" stroke-miterlimit="10" d="M 6.093965 -0.00185968 L 1.448633 1.757736 L 2.989256 -0.00185968 L 1.448633 -1.757545 Z M 6.093965 -0.00185968 " transform="matrix(0.998987, 0, 0, -0.998987, 219.966898, 133.076267)"/>
<g fill="rgb(43.136597%, 46.273804%, 50.585938%)" fill-opacity="1">
<use xlink:href="#glyph-0-13" x="183.926435" y="128.647759"/>
</g>
<g fill="rgb(43.136597%, 46.273804%, 50.585938%)" fill-opacity="1">
<use xlink:href="#glyph-0-4" x="190.24791" y="128.647759"/>
<use xlink:href="#glyph-0-7" x="195.445541" y="128.647759"/>
<use xlink:href="#glyph-0-10" x="200.643172" y="128.647759"/>
<use xlink:href="#glyph-0-12" x="206.490507" y="128.647759"/>
<use xlink:href="#glyph-0-4" x="215.738038" y="128.647759"/>
<use xlink:href="#glyph-0-15" x="220.935669" y="128.647759"/>
</g>
<path fill="none" stroke-width="0.89664" stroke-linecap="butt" stroke-linejoin="miter" stroke="rgb(43.136597%, 46.273804%, 50.585938%)" stroke-opacity="1" stroke-miterlimit="10" d="M 273.933528 14.117917 L 331.777298 25.59048 " transform="matrix(0.998987, 0, 0, -0.998987, 96.16046, 133.076267)"/>
<path fill-rule="nonzero" fill="rgb(43.136597%, 46.273804%, 50.585938%)" fill-opacity="1" stroke-width="0.89664" stroke-linecap="butt" stroke-linejoin="miter" stroke="rgb(43.136597%, 46.273804%, 50.585938%)" stroke-opacity="1" stroke-miterlimit="10" d="M 6.09234 0.0013155 L 1.449109 1.755483 L 2.986443 -0.000550996 L 1.446252 -1.756105 Z M 6.09234 0.0013155 " transform="matrix(0.979856, -0.194353, -0.194353, -0.979856, 424.893921, 108.048634)"/>
<g fill="rgb(43.136597%, 46.273804%, 50.585938%)" fill-opacity="1">
<use xlink:href="#glyph-0-6" x="352.81912" y="108.046656"/>
<use xlink:href="#glyph-0-4" x="358.666454" y="108.046656"/>
<use xlink:href="#glyph-0-5" x="363.864085" y="108.046656"/>
<use xlink:href="#glyph-0-4" x="369.863097" y="108.046656"/>
<use xlink:href="#glyph-0-1" x="375.060728" y="108.046656"/>
<use xlink:href="#glyph-0-8" x="379.034193" y="108.046656"/>
<use xlink:href="#glyph-0-3" x="384.631917" y="108.046656"/>
<use xlink:href="#glyph-0-4" x="388.854992" y="108.046656"/>
<use xlink:href="#glyph-0-15" x="394.052623" y="108.046656"/>
</g>
<path fill="none" stroke-width="0.89664" stroke-linecap="butt" stroke-linejoin="miter" stroke="rgb(43.136597%, 46.273804%, 50.585938%)" stroke-opacity="1" stroke-miterlimit="10" d="M 273.933528 -14.117726 L 331.777298 -25.590289 " transform="matrix(0.998987, 0, 0, -0.998987, 96.16046, 133.076267)"/>
<path fill-rule="nonzero" fill="rgb(43.136597%, 46.273804%, 50.585938%)" fill-opacity="1" stroke-width="0.89664" stroke-linecap="butt" stroke-linejoin="miter" stroke="rgb(43.136597%, 46.273804%, 50.585938%)" stroke-opacity="1" stroke-miterlimit="10" d="M 6.092302 -0.00112829 L 1.446215 1.756293 L 2.986406 0.000738207 L 1.449072 -1.755295 Z M 6.092302 -0.00112829 " transform="matrix(0.979856, 0.194353, 0.194353, -0.979856, 424.893921, 158.103901)"/>
<g fill="rgb(43.136597%, 46.273804%, 50.585938%)" fill-opacity="1">
<use xlink:href="#glyph-0-6" x="346.710316" y="162.549371"/>
<use xlink:href="#glyph-0-4" x="352.557651" y="162.549371"/>
<use xlink:href="#glyph-0-5" x="357.755282" y="162.549371"/>
<use xlink:href="#glyph-0-4" x="363.754294" y="162.549371"/>
<use xlink:href="#glyph-0-1" x="368.951924" y="162.549371"/>
<use xlink:href="#glyph-0-8" x="372.925389" y="162.549371"/>
<use xlink:href="#glyph-0-3" x="378.523113" y="162.549371"/>
<use xlink:href="#glyph-0-4" x="382.746188" y="162.549371"/>
<use xlink:href="#glyph-0-15" x="387.943819" y="162.549371"/>
</g>
<g fill="rgb(43.136597%, 46.273804%, 50.585938%)" fill-opacity="1">
<use xlink:href="#glyph-0-10" x="340.601513" y="176.483238"/>
<use xlink:href="#glyph-0-5" x="346.448847" y="176.483238"/>
<use xlink:href="#glyph-0-4" x="352.447859" y="176.483238"/>
</g>
<g fill="rgb(43.136597%, 46.273804%, 50.585938%)" fill-opacity="1">
<use xlink:href="#glyph-0-16" x="361.538936" y="176.483238"/>
</g>
<g fill="rgb(43.136597%, 46.273804%, 50.585938%)" fill-opacity="1">
<use xlink:href="#glyph-0-4" x="367.872354" y="176.483238"/>
<use xlink:href="#glyph-0-1" x="373.069985" y="176.483238"/>
</g>
<g fill="rgb(43.136597%, 46.273804%, 50.585938%)" fill-opacity="1">
<use xlink:href="#glyph-0-8" x="380.936896" y="176.483238"/>
<use xlink:href="#glyph-0-16" x="386.53462" y="176.483238"/>
<use xlink:href="#glyph-0-16" x="392.533632" y="176.483238"/>
</g>
<path fill="none" stroke-width="0.89664" stroke-linecap="butt" stroke-linejoin="miter" stroke="rgb(43.136597%, 46.273804%, 50.585938%)" stroke-opacity="1" stroke-miterlimit="10" d="M 478.926407 -40.582043 L 565.029281 -40.582043 " transform="matrix(0.998987, 0, 0, -0.998987, 96.16046, 133.076267)"/>
<path fill-rule="nonzero" fill="rgb(43.136597%, 46.273804%, 50.585938%)" fill-opacity="1" stroke-width="0.89664" stroke-linecap="butt" stroke-linejoin="miter" stroke="rgb(43.136597%, 46.273804%, 50.585938%)" stroke-opacity="1" stroke-miterlimit="10" d="M 6.094452 0.0000972218 L 1.44912 1.755783 L 2.989744 0.0000972218 L 1.44912 -1.755588 Z M 6.094452 0.0000972218 " transform="matrix(0.998987, 0, 0, -0.998987, 657.857036, 173.617285)"/>
<g fill="rgb(43.136597%, 46.273804%, 50.585938%)" fill-opacity="1">
<use xlink:href="#glyph-0-7" x="602.968382" y="169.187638"/>
<use xlink:href="#glyph-0-1" x="608.166013" y="169.187638"/>
<use xlink:href="#glyph-0-4" x="612.139477" y="169.187638"/>
<use xlink:href="#glyph-0-8" x="617.337108" y="169.187638"/>
<use xlink:href="#glyph-0-3" x="622.934832" y="169.187638"/>
<use xlink:href="#glyph-0-4" x="627.157908" y="169.187638"/>
<use xlink:href="#glyph-0-15" x="632.355538" y="169.187638"/>
</g>
<path fill="none" stroke-width="0.89664" stroke-linecap="butt" stroke-linejoin="miter" stroke="rgb(43.136597%, 46.273804%, 50.585938%)" stroke-opacity="1" stroke-dasharray="2.98883 2.98883" stroke-miterlimit="10" d="M 407.611955 -58.03723 L 407.611955 -121.464784 " transform="matrix(0.998987, 0, 0, -0.998987, 96.16046, 133.076267)"/>
<path fill-rule="nonzero" fill="rgb(43.136597%, 46.273804%, 50.585938%)" fill-opacity="1" stroke-width="0.89664" stroke-linecap="butt" stroke-linejoin="miter" stroke="rgb(43.136597%, 46.273804%, 50.585938%)" stroke-opacity="1" stroke-miterlimit="10" d="M 6.091645 0.000645088 L 1.446312 1.75633 L 2.986936 0.000645088 L 1.446312 -1.75504 Z M 6.091645 0.000645088 " transform="matrix(0, 0.998987, 0.998987, 0, 503.358731, 251.656716)"/>
<g fill="rgb(43.136597%, 46.273804%, 50.585938%)" fill-opacity="1">
<use xlink:href="#glyph-0-9" x="507.781934" y="228.02196"/>
<use xlink:href="#glyph-0-4" x="513.780946" y="228.02196"/>
<use xlink:href="#glyph-0-16" x="518.978577" y="228.02196"/>
</g>
<g fill="rgb(43.136597%, 46.273804%, 50.585938%)" fill-opacity="1">
<use xlink:href="#glyph-0-4" x="525.300052" y="228.02196"/>
<use xlink:href="#glyph-0-5" x="530.497683" y="228.02196"/>
<use xlink:href="#glyph-0-9" x="536.496695" y="228.02196"/>
<use xlink:href="#glyph-0-15" x="542.495706" y="228.02196"/>
</g>
<g fill="rgb(43.136597%, 46.273804%, 50.585938%)" fill-opacity="1">
<use xlink:href="#glyph-0-10" x="550.883335" y="228.02196"/>
<use xlink:href="#glyph-0-5" x="556.73067" y="228.02196"/>
</g>
<path fill="none" stroke-width="0.69739" stroke-linecap="butt" stroke-linejoin="miter" stroke="rgb(43.136597%, 46.273804%, 50.585938%)" stroke-opacity="1" stroke-miterlimit="10" d="M 24.845185 -62.709934 L -82.611359 -62.709934 C -84.261469 -62.709934 -85.598761 -64.051137 -85.598761 -65.701246 L -85.598761 -132.522864 C -85.598761 -134.172974 -84.261469 -135.510266 -82.611359 -135.510266 L 24.845185 -135.510266 C 26.495294 -135.510266 27.836497 -134.172974 27.836497 -132.522864 L 27.836497 -65.701246 C 27.836497 -64.051137 26.495294 -62.709934 24.845185 -62.709934 Z M 24.845185 -62.709934 " transform="matrix(0.998987, 0, 0, -0.998987, 96.16046, 133.076267)"/>
<g fill="rgb(43.136597%, 46.273804%, 50.585938%)" fill-opacity="1">
<use xlink:href="#glyph-3-7" x="19.144581" y="213.972211"/>
<use xlink:href="#glyph-3-2" x="25.290493" y="213.972211"/>
<use xlink:href="#glyph-3-11" x="31.436404" y="213.972211"/>
</g>
<g fill="rgb(43.136597%, 46.273804%, 50.585938%)" fill-opacity="1">
<use xlink:href="#glyph-0-17" x="45.381151" y="213.972211"/>
<use xlink:href="#glyph-0-4" x="52.907684" y="213.972211"/>
<use xlink:href="#glyph-0-15" x="58.105315" y="213.972211"/>
<use xlink:href="#glyph-0-10" x="62.587555" y="213.972211"/>
<use xlink:href="#glyph-0-18" x="68.434889" y="213.972211"/>
<use xlink:href="#glyph-0-1" x="74.433901" y="213.972211"/>
<use xlink:href="#glyph-0-7" x="78.407366" y="213.972211"/>
<use xlink:href="#glyph-0-4" x="83.604997" y="213.972211"/>
<use xlink:href="#glyph-0-19" x="88.802627" y="213.972211"/>
<use xlink:href="#glyph-0-4" x="95.299666" y="213.972211"/>
<use xlink:href="#glyph-0-3" x="100.497297" y="213.972211"/>
</g>
<g fill="rgb(43.136597%, 46.273804%, 50.585938%)" fill-opacity="1">
<use xlink:href="#glyph-3-8" x="19.144581" y="227.906077"/>
<use xlink:href="#glyph-3-2" x="25.290493" y="227.906077"/>
<use xlink:href="#glyph-3-11" x="31.436404" y="227.906077"/>
</g>
<g fill="rgb(43.136597%, 46.273804%, 50.585938%)" fill-opacity="1">
<use xlink:href="#glyph-0-20" x="45.381151" y="227.906077"/>
<use xlink:href="#glyph-0-8" x="53.577691" y="227.906077"/>
<use xlink:href="#glyph-0-12" x="59.175415" y="227.906077"/>
<use xlink:href="#glyph-0-4" x="68.422946" y="227.906077"/>
<use xlink:href="#glyph-0-15" x="73.620577" y="227.906077"/>
<use xlink:href="#glyph-0-16" x="78.102817" y="227.906077"/>
<use xlink:href="#glyph-0-8" x="84.101829" y="227.906077"/>
<use xlink:href="#glyph-0-7" x="89.699553" y="227.906077"/>
<use xlink:href="#glyph-0-4" x="94.897184" y="227.906077"/>
</g>
<g fill="rgb(43.136597%, 46.273804%, 50.585938%)" fill-opacity="1">
<use xlink:href="#glyph-3-12" x="19.144581" y="241.838944"/>
<use xlink:href="#glyph-3-2" x="25.290493" y="241.838944"/>
<use xlink:href="#glyph-3-11" x="31.436404" y="241.838944"/>
</g>
<g fill="rgb(43.136597%, 46.273804%, 50.585938%)" fill-opacity="1">
<use xlink:href="#glyph-0-21" x="45.381151" y="241.838944"/>
<use xlink:href="#glyph-0-18" x="53.43318" y="241.838944"/>
<use xlink:href="#glyph-0-15" x="59.432191" y="241.838944"/>
<use xlink:href="#glyph-0-3" x="63.914431" y="241.838944"/>
<use xlink:href="#glyph-0-10" x="68.137506" y="241.838944"/>
<use xlink:href="#glyph-0-12" x="73.984841" y="241.838944"/>
<use xlink:href="#glyph-0-2" x="83.232372" y="241.838944"/>
<use xlink:href="#glyph-0-22" x="85.982865" y="241.838944"/>
<use xlink:href="#glyph-0-8" x="91.055093" y="241.838944"/>
<use xlink:href="#glyph-0-3" x="96.652818" y="241.838944"/>
<use xlink:href="#glyph-0-2" x="100.875893" y="241.838944"/>
<use xlink:href="#glyph-0-10" x="103.626385" y="241.838944"/>
<use xlink:href="#glyph-0-5" x="109.47372" y="241.838944"/>
</g>
<g fill="rgb(43.136597%, 46.273804%, 50.585938%)" fill-opacity="1">
<use xlink:href="#glyph-3-13" x="19.144581" y="255.772811"/>
<use xlink:href="#glyph-3-7" x="25.290493" y="255.772811"/>
<use xlink:href="#glyph-3-11" x="31.436404" y="255.772811"/>
</g>
<g fill="rgb(43.136597%, 46.273804%, 50.585938%)" fill-opacity="1">
<use xlink:href="#glyph-0-23" x="45.381151" y="255.772811"/>
<use xlink:href="#glyph-0-4" x="53.577691" y="255.772811"/>
<use xlink:href="#glyph-0-11" x="58.775322" y="255.772811"/>
<use xlink:href="#glyph-0-12" x="61.525814" y="255.772811"/>
<use xlink:href="#glyph-0-17" x="70.773345" y="255.772811"/>
<use xlink:href="#glyph-0-4" x="78.299878" y="255.772811"/>
<use xlink:href="#glyph-0-11" x="83.497509" y="255.772811"/>
<use xlink:href="#glyph-0-4" x="86.248001" y="255.772811"/>
<use xlink:href="#glyph-0-8" x="91.445632" y="255.772811"/>
<use xlink:href="#glyph-0-15" x="97.043357" y="255.772811"/>
<use xlink:href="#glyph-0-4" x="101.525597" y="255.772811"/>
</g>
</svg>
